G04 keeberia — Edge.Cuts*
%FSLAX35Y35*%
%MOMM*%
%LPD*%
G01*
%ADD10C,0.1*%
D10*
X3015000Y-3852500D02*
X3010196Y-3901273D01*
D10*
X3010196Y-3901273D02*
X2995970Y-3948171D01*
D10*
X2995970Y-3948171D02*
X2972867Y-3991393D01*
D10*
X2972867Y-3991393D02*
X2941777Y-4029277D01*
D10*
X2941777Y-4029277D02*
X2903893Y-4060367D01*
D10*
X2903893Y-4060367D02*
X2860671Y-4083470D01*
D10*
X2860671Y-4083470D02*
X2813773Y-4097696D01*
D10*
X2813773Y-4097696D02*
X2765000Y-4102500D01*
D10*
X2765000Y-4102500D02*
X-2765000Y-4102500D01*
D10*
X-2765000Y-4102500D02*
X-2813773Y-4097696D01*
D10*
X-2813773Y-4097696D02*
X-2860671Y-4083470D01*
D10*
X-2860671Y-4083470D02*
X-2903893Y-4060367D01*
D10*
X-2903893Y-4060367D02*
X-2941777Y-4029277D01*
D10*
X-2941777Y-4029277D02*
X-2972867Y-3991393D01*
D10*
X-2972867Y-3991393D02*
X-2995970Y-3948171D01*
D10*
X-2995970Y-3948171D02*
X-3010196Y-3901273D01*
D10*
X-3010196Y-3901273D02*
X-3015000Y-3852500D01*
D10*
X-3015000Y-3852500D02*
X-3015000Y3852500D01*
D10*
X-3015000Y3852500D02*
X-3010196Y3901273D01*
D10*
X-3010196Y3901273D02*
X-2995970Y3948171D01*
D10*
X-2995970Y3948171D02*
X-2972867Y3991393D01*
D10*
X-2972867Y3991393D02*
X-2941777Y4029277D01*
D10*
X-2941777Y4029277D02*
X-2903893Y4060367D01*
D10*
X-2903893Y4060367D02*
X-2860671Y4083470D01*
D10*
X-2860671Y4083470D02*
X-2813773Y4097696D01*
D10*
X-2813773Y4097696D02*
X-2765000Y4102500D01*
D10*
X-2765000Y4102500D02*
X2765000Y4102500D01*
D10*
X2765000Y4102500D02*
X2813773Y4097696D01*
D10*
X2813773Y4097696D02*
X2860671Y4083470D01*
D10*
X2860671Y4083470D02*
X2903893Y4060367D01*
D10*
X2903893Y4060367D02*
X2941777Y4029277D01*
D10*
X2941777Y4029277D02*
X2972867Y3991393D01*
D10*
X2972867Y3991393D02*
X2995970Y3948171D01*
D10*
X2995970Y3948171D02*
X3010196Y3901273D01*
D10*
X3010196Y3901273D02*
X3015000Y3852500D01*
D10*
X3015000Y3852500D02*
X3015000Y-3852500D01*
M02*
