G04 keeberia — B.SilkS*
%FSLAX35Y35*%
%MOMM*%
%LPD*%
G01*
%ADD10C,0.15*%
D10*
X-1235000Y3662500D02*
X-2575000Y3662500D01*
D10*
X-2575000Y3662500D02*
X-2575000Y2322500D01*
D10*
X-2575000Y2322500D02*
X-1235000Y2322500D01*
D10*
X-1235000Y2322500D02*
X-1235000Y3662500D01*
D10*
X670000Y3662500D02*
X-670000Y3662500D01*
D10*
X-670000Y3662500D02*
X-670000Y2322500D01*
D10*
X-670000Y2322500D02*
X670000Y2322500D01*
D10*
X670000Y2322500D02*
X670000Y3662500D01*
D10*
X-1235000Y1757500D02*
X-2575000Y1757500D01*
D10*
X-2575000Y1757500D02*
X-2575000Y417500D01*
D10*
X-2575000Y417500D02*
X-1235000Y417500D01*
D10*
X-1235000Y417500D02*
X-1235000Y1757500D01*
D10*
X670000Y1757500D02*
X-670000Y1757500D01*
D10*
X-670000Y1757500D02*
X-670000Y417500D01*
D10*
X-670000Y417500D02*
X670000Y417500D01*
D10*
X670000Y417500D02*
X670000Y1757500D01*
D10*
X2575000Y1757500D02*
X1235000Y1757500D01*
D10*
X1235000Y1757500D02*
X1235000Y417500D01*
D10*
X1235000Y417500D02*
X2575000Y417500D01*
D10*
X2575000Y417500D02*
X2575000Y1757500D01*
D10*
X-1235000Y-147500D02*
X-2575000Y-147500D01*
D10*
X-2575000Y-147500D02*
X-2575000Y-1487500D01*
D10*
X-2575000Y-1487500D02*
X-1235000Y-1487500D01*
D10*
X-1235000Y-1487500D02*
X-1235000Y-147500D01*
D10*
X670000Y-147500D02*
X-670000Y-147500D01*
D10*
X-670000Y-147500D02*
X-670000Y-1487500D01*
D10*
X-670000Y-1487500D02*
X670000Y-1487500D01*
D10*
X670000Y-1487500D02*
X670000Y-147500D01*
D10*
X2575000Y-147500D02*
X1235000Y-147500D01*
D10*
X1235000Y-147500D02*
X1235000Y-1487500D01*
D10*
X1235000Y-1487500D02*
X2575000Y-1487500D01*
D10*
X2575000Y-1487500D02*
X2575000Y-147500D01*
D10*
X-1020000Y-3597500D02*
X1020000Y-3597500D01*
D10*
X1020000Y-3597500D02*
X1020000Y-1907500D01*
D10*
X1020000Y-1907500D02*
X-1020000Y-1907500D01*
D10*
X-1020000Y-1907500D02*
X-1020000Y-3597500D01*
D10*
X-300000Y-3712500D02*
X300000Y-3712500D01*
D10*
X625000Y-3942500D02*
X625000Y-4042500D01*
D10*
X558333Y-4042500D02*
X625000Y-3992500D01*
D10*
X625000Y-3992500D02*
X558333Y-3942500D01*
D10*
X475000Y-4042500D02*
X541667Y-4042500D01*
D10*
X541667Y-4042500D02*
X541667Y-3942500D01*
D10*
X541667Y-3942500D02*
X475000Y-3942500D01*
D10*
X541667Y-3992500D02*
X491667Y-3992500D01*
D10*
X391667Y-4042500D02*
X458333Y-4042500D01*
D10*
X458333Y-4042500D02*
X458333Y-3942500D01*
D10*
X458333Y-3942500D02*
X391667Y-3942500D01*
D10*
X458333Y-3992500D02*
X408333Y-3992500D01*
D10*
X375000Y-3942500D02*
X375000Y-4042500D01*
D10*
X375000Y-4042500D02*
X325000Y-4042500D01*
D10*
X325000Y-4042500D02*
X308333Y-4025833D01*
D10*
X308333Y-4025833D02*
X308333Y-4009167D01*
D10*
X308333Y-4009167D02*
X325000Y-3992500D01*
D10*
X325000Y-3992500D02*
X375000Y-3992500D01*
D10*
X325000Y-3992500D02*
X308333Y-3975833D01*
D10*
X308333Y-3975833D02*
X308333Y-3959167D01*
D10*
X308333Y-3959167D02*
X325000Y-3942500D01*
D10*
X325000Y-3942500D02*
X375000Y-3942500D01*
D10*
X225000Y-4042500D02*
X291667Y-4042500D01*
D10*
X291667Y-4042500D02*
X291667Y-3942500D01*
D10*
X291667Y-3942500D02*
X225000Y-3942500D01*
D10*
X291667Y-3992500D02*
X241667Y-3992500D01*
D10*
X208333Y-3942500D02*
X208333Y-4042500D01*
D10*
X208333Y-4042500D02*
X158333Y-4042500D01*
D10*
X158333Y-4042500D02*
X141667Y-4025833D01*
D10*
X141667Y-4025833D02*
X141667Y-4009167D01*
D10*
X141667Y-4009167D02*
X158333Y-3992500D01*
D10*
X158333Y-3992500D02*
X208333Y-3992500D01*
D10*
X191667Y-3992500D02*
X141667Y-3942500D01*
D10*
X108333Y-3942500D02*
X108333Y-4042500D01*
D10*
X125000Y-4042500D02*
X91667Y-4042500D01*
D10*
X125000Y-3942500D02*
X91667Y-3942500D01*
D10*
X41667Y-3942500D02*
X8333Y-4042500D01*
D10*
X8333Y-4042500D02*
X-25000Y-3942500D01*
D10*
X41667Y-3975833D02*
X-25000Y-3975833D01*
D10*
X-41667Y-3992500D02*
X-108333Y-3992500D01*
D10*
X-125000Y-3942500D02*
X-125000Y-4042500D01*
D10*
X-125000Y-4042500D02*
X-191667Y-3942500D01*
D10*
X-191667Y-3942500D02*
X-191667Y-4042500D01*
D10*
X-225000Y-3942500D02*
X-225000Y-4042500D01*
D10*
X-208333Y-4042500D02*
X-241667Y-4042500D01*
D10*
X-208333Y-3942500D02*
X-241667Y-3942500D01*
D10*
X-291667Y-3942500D02*
X-291667Y-4042500D01*
D10*
X-291667Y-4042500D02*
X-358333Y-3942500D01*
D10*
X-358333Y-3942500D02*
X-358333Y-4042500D01*
D10*
X-441667Y-4042500D02*
X-375000Y-4042500D01*
D10*
X-375000Y-4042500D02*
X-375000Y-3942500D01*
D10*
X-375000Y-3942500D02*
X-441667Y-3942500D01*
D10*
X-375000Y-3992500D02*
X-425000Y-3992500D01*
D10*
X-458333Y-3942500D02*
X-458333Y-4042500D01*
D10*
X-458333Y-4042500D02*
X-508333Y-4042500D01*
D10*
X-508333Y-4042500D02*
X-525000Y-4025833D01*
D10*
X-525000Y-4025833D02*
X-525000Y-4009167D01*
D10*
X-525000Y-4009167D02*
X-508333Y-3992500D01*
D10*
X-508333Y-3992500D02*
X-458333Y-3992500D01*
D10*
X-541667Y-3942500D02*
X-575000Y-4042500D01*
D10*
X-575000Y-4042500D02*
X-608333Y-3942500D01*
D10*
X-541667Y-3975833D02*
X-608333Y-3975833D01*
D10*
X-625000Y-3942500D02*
X-625000Y-4042500D01*
D10*
X-625000Y-4042500D02*
X-658333Y-4042500D01*
D10*
X-658333Y-4042500D02*
X-691667Y-4009167D01*
D10*
X-691667Y-4009167D02*
X-691667Y-3975833D01*
D10*
X-691667Y-3975833D02*
X-658333Y-3942500D01*
D10*
X-658333Y-3942500D02*
X-625000Y-3942500D01*
M02*
