G04 keeberia — Edge.Cuts*
%FSLAX35Y35*%
%MOMM*%
%LPD*%
G01*
%ADD10C,0.1*%
D10*
X2855000Y-3772500D02*
X2850196Y-3821273D01*
D10*
X2850196Y-3821273D02*
X2835970Y-3868171D01*
D10*
X2835970Y-3868171D02*
X2812867Y-3911393D01*
D10*
X2812867Y-3911393D02*
X2781777Y-3949277D01*
D10*
X2781777Y-3949277D02*
X2743893Y-3980367D01*
D10*
X2743893Y-3980367D02*
X2700671Y-4003470D01*
D10*
X2700671Y-4003470D02*
X2653773Y-4017696D01*
D10*
X2653773Y-4017696D02*
X2605000Y-4022500D01*
D10*
X2605000Y-4022500D02*
X-2605000Y-4022500D01*
D10*
X-2605000Y-4022500D02*
X-2653773Y-4017696D01*
D10*
X-2653773Y-4017696D02*
X-2700671Y-4003470D01*
D10*
X-2700671Y-4003470D02*
X-2743893Y-3980367D01*
D10*
X-2743893Y-3980367D02*
X-2781777Y-3949277D01*
D10*
X-2781777Y-3949277D02*
X-2812867Y-3911393D01*
D10*
X-2812867Y-3911393D02*
X-2835970Y-3868171D01*
D10*
X-2835970Y-3868171D02*
X-2850196Y-3821273D01*
D10*
X-2850196Y-3821273D02*
X-2855000Y-3772500D01*
D10*
X-2855000Y-3772500D02*
X-2855000Y3772500D01*
D10*
X-2855000Y3772500D02*
X-2850196Y3821273D01*
D10*
X-2850196Y3821273D02*
X-2835970Y3868171D01*
D10*
X-2835970Y3868171D02*
X-2812867Y3911393D01*
D10*
X-2812867Y3911393D02*
X-2781777Y3949277D01*
D10*
X-2781777Y3949277D02*
X-2743893Y3980367D01*
D10*
X-2743893Y3980367D02*
X-2700671Y4003470D01*
D10*
X-2700671Y4003470D02*
X-2653773Y4017696D01*
D10*
X-2653773Y4017696D02*
X-2605000Y4022500D01*
D10*
X-2605000Y4022500D02*
X2605000Y4022500D01*
D10*
X2605000Y4022500D02*
X2653773Y4017696D01*
D10*
X2653773Y4017696D02*
X2700671Y4003470D01*
D10*
X2700671Y4003470D02*
X2743893Y3980367D01*
D10*
X2743893Y3980367D02*
X2781777Y3949277D01*
D10*
X2781777Y3949277D02*
X2812867Y3911393D01*
D10*
X2812867Y3911393D02*
X2835970Y3868171D01*
D10*
X2835970Y3868171D02*
X2850196Y3821273D01*
D10*
X2850196Y3821273D02*
X2855000Y3772500D01*
D10*
X2855000Y3772500D02*
X2855000Y-3772500D01*
M02*
