G04 keeberia — B.SilkS*
%FSLAX35Y35*%
%MOMM*%
%LPD*%
G01*
%ADD10C,0.15*%
D10*
X-1020000Y-3517500D02*
X1020000Y-3517500D01*
D10*
X1020000Y-3517500D02*
X1020000Y-1827500D01*
D10*
X1020000Y-1827500D02*
X-1020000Y-1827500D01*
D10*
X-1020000Y-1827500D02*
X-1020000Y-3517500D01*
D10*
X-300000Y-3632500D02*
X300000Y-3632500D01*
D10*
X833333Y-3862500D02*
X833333Y-3962500D01*
D10*
X766667Y-3962500D02*
X833333Y-3912500D01*
D10*
X833333Y-3912500D02*
X766667Y-3862500D01*
D10*
X683333Y-3962500D02*
X750000Y-3962500D01*
D10*
X750000Y-3962500D02*
X750000Y-3862500D01*
D10*
X750000Y-3862500D02*
X683333Y-3862500D01*
D10*
X750000Y-3912500D02*
X700000Y-3912500D01*
D10*
X600000Y-3962500D02*
X666667Y-3962500D01*
D10*
X666667Y-3962500D02*
X666667Y-3862500D01*
D10*
X666667Y-3862500D02*
X600000Y-3862500D01*
D10*
X666667Y-3912500D02*
X616667Y-3912500D01*
D10*
X583333Y-3862500D02*
X583333Y-3962500D01*
D10*
X583333Y-3962500D02*
X533333Y-3962500D01*
D10*
X533333Y-3962500D02*
X516667Y-3945833D01*
D10*
X516667Y-3945833D02*
X516667Y-3929167D01*
D10*
X516667Y-3929167D02*
X533333Y-3912500D01*
D10*
X533333Y-3912500D02*
X583333Y-3912500D01*
D10*
X533333Y-3912500D02*
X516667Y-3895833D01*
D10*
X516667Y-3895833D02*
X516667Y-3879167D01*
D10*
X516667Y-3879167D02*
X533333Y-3862500D01*
D10*
X533333Y-3862500D02*
X583333Y-3862500D01*
D10*
X433333Y-3962500D02*
X500000Y-3962500D01*
D10*
X500000Y-3962500D02*
X500000Y-3862500D01*
D10*
X500000Y-3862500D02*
X433333Y-3862500D01*
D10*
X500000Y-3912500D02*
X450000Y-3912500D01*
D10*
X416667Y-3862500D02*
X416667Y-3962500D01*
D10*
X416667Y-3962500D02*
X366667Y-3962500D01*
D10*
X366667Y-3962500D02*
X350000Y-3945833D01*
D10*
X350000Y-3945833D02*
X350000Y-3929167D01*
D10*
X350000Y-3929167D02*
X366667Y-3912500D01*
D10*
X366667Y-3912500D02*
X416667Y-3912500D01*
D10*
X400000Y-3912500D02*
X350000Y-3862500D01*
D10*
X316667Y-3862500D02*
X316667Y-3962500D01*
D10*
X333333Y-3962500D02*
X300000Y-3962500D01*
D10*
X333333Y-3862500D02*
X300000Y-3862500D01*
D10*
X250000Y-3862500D02*
X216667Y-3962500D01*
D10*
X216667Y-3962500D02*
X183333Y-3862500D01*
D10*
X250000Y-3895833D02*
X183333Y-3895833D01*
D10*
X166667Y-3912500D02*
X100000Y-3912500D01*
D10*
X83333Y-3862500D02*
X83333Y-3962500D01*
D10*
X83333Y-3962500D02*
X16667Y-3862500D01*
D10*
X16667Y-3862500D02*
X16667Y-3962500D01*
D10*
X-16667Y-3862500D02*
X-16667Y-3962500D01*
D10*
X0Y-3962500D02*
X-33333Y-3962500D01*
D10*
X0Y-3862500D02*
X-33333Y-3862500D01*
D10*
X-83333Y-3862500D02*
X-83333Y-3962500D01*
D10*
X-83333Y-3962500D02*
X-150000Y-3862500D01*
D10*
X-150000Y-3862500D02*
X-150000Y-3962500D01*
D10*
X-233333Y-3962500D02*
X-166667Y-3962500D01*
D10*
X-166667Y-3962500D02*
X-166667Y-3862500D01*
D10*
X-166667Y-3862500D02*
X-233333Y-3862500D01*
D10*
X-166667Y-3912500D02*
X-216667Y-3912500D01*
D10*
X-250000Y-3862500D02*
X-250000Y-3962500D01*
D10*
X-250000Y-3962500D02*
X-300000Y-3962500D01*
D10*
X-300000Y-3962500D02*
X-316667Y-3945833D01*
D10*
X-316667Y-3945833D02*
X-316667Y-3929167D01*
D10*
X-316667Y-3929167D02*
X-300000Y-3912500D01*
D10*
X-300000Y-3912500D02*
X-250000Y-3912500D01*
D10*
X-333333Y-3862500D02*
X-366667Y-3962500D01*
D10*
X-366667Y-3962500D02*
X-400000Y-3862500D01*
D10*
X-333333Y-3895833D02*
X-400000Y-3895833D01*
D10*
X-416667Y-3862500D02*
X-416667Y-3962500D01*
D10*
X-416667Y-3962500D02*
X-450000Y-3962500D01*
D10*
X-450000Y-3962500D02*
X-483333Y-3929167D01*
D10*
X-483333Y-3929167D02*
X-483333Y-3895833D01*
D10*
X-483333Y-3895833D02*
X-450000Y-3862500D01*
D10*
X-450000Y-3862500D02*
X-416667Y-3862500D01*
D10*
X-500000Y-3912500D02*
X-566667Y-3912500D01*
D10*
X-650000Y-3945833D02*
X-633333Y-3962500D01*
D10*
X-633333Y-3962500D02*
X-600000Y-3962500D01*
D10*
X-600000Y-3962500D02*
X-583333Y-3945833D01*
D10*
X-583333Y-3945833D02*
X-583333Y-3879167D01*
D10*
X-583333Y-3879167D02*
X-600000Y-3862500D01*
D10*
X-600000Y-3862500D02*
X-633333Y-3862500D01*
D10*
X-633333Y-3862500D02*
X-650000Y-3879167D01*
D10*
X-666667Y-3862500D02*
X-666667Y-3962500D01*
D10*
X-733333Y-3862500D02*
X-733333Y-3962500D01*
D10*
X-666667Y-3912500D02*
X-733333Y-3912500D01*
D10*
X-750000Y-3879167D02*
X-750000Y-3945833D01*
D10*
X-750000Y-3945833D02*
X-766667Y-3962500D01*
D10*
X-766667Y-3962500D02*
X-800000Y-3962500D01*
D10*
X-800000Y-3962500D02*
X-816667Y-3945833D01*
D10*
X-816667Y-3945833D02*
X-816667Y-3879167D01*
D10*
X-816667Y-3879167D02*
X-800000Y-3862500D01*
D10*
X-800000Y-3862500D02*
X-766667Y-3862500D01*
D10*
X-766667Y-3862500D02*
X-750000Y-3879167D01*
D10*
X-900000Y-3945833D02*
X-883333Y-3962500D01*
D10*
X-883333Y-3962500D02*
X-850000Y-3962500D01*
D10*
X-850000Y-3962500D02*
X-833333Y-3945833D01*
D10*
X-833333Y-3945833D02*
X-833333Y-3879167D01*
D10*
X-833333Y-3879167D02*
X-850000Y-3862500D01*
D10*
X-850000Y-3862500D02*
X-883333Y-3862500D01*
D10*
X-883333Y-3862500D02*
X-900000Y-3879167D01*
M02*
