G04 keeberia — B.Cu*
%FSLAX35Y35*%
%MOMM*%
%LPD*%
G01*
%ADD10C,2*%
D10*
X-2405000Y2692500D03*
D10*
X-1905000Y2482500D03*
%ADD11C,1.7*%
D11*
X-2455000Y3072500D03*
D11*
X-1355000Y3072500D03*
%ADD12C,3.4*%
D12*
X-1905000Y3072500D03*
D10*
X-500000Y2692500D03*
D10*
X0Y2482500D03*
D11*
X-550000Y3072500D03*
D11*
X550000Y3072500D03*
D12*
X0Y3072500D03*
D10*
X1405000Y2692500D03*
D10*
X1905000Y2482500D03*
D11*
X1355000Y3072500D03*
D11*
X2455000Y3072500D03*
D12*
X1905000Y3072500D03*
D10*
X-2405000Y787500D03*
D10*
X-1905000Y577500D03*
D11*
X-2455000Y1167500D03*
D11*
X-1355000Y1167500D03*
D12*
X-1905000Y1167500D03*
D10*
X-500000Y787500D03*
D10*
X0Y577500D03*
D11*
X-550000Y1167500D03*
D11*
X550000Y1167500D03*
D12*
X0Y1167500D03*
D10*
X1405000Y787500D03*
D10*
X1905000Y577500D03*
D11*
X1355000Y1167500D03*
D11*
X2455000Y1167500D03*
D12*
X1905000Y1167500D03*
D10*
X-2405000Y-1117500D03*
D10*
X-1905000Y-1327500D03*
D11*
X-2455000Y-737500D03*
D11*
X-1355000Y-737500D03*
D12*
X-1905000Y-737500D03*
D10*
X-500000Y-1117500D03*
D10*
X0Y-1327500D03*
D11*
X-550000Y-737500D03*
D11*
X550000Y-737500D03*
D12*
X0Y-737500D03*
D10*
X1405000Y-1117500D03*
D10*
X1905000Y-1327500D03*
D11*
X1355000Y-737500D03*
D11*
X2455000Y-737500D03*
D12*
X1905000Y-737500D03*
%ADD13O,2X1.6*%
D13*
X-990000Y-3272500D03*
D13*
X-990000Y-3072500D03*
D13*
X-990000Y-2872500D03*
D13*
X-990000Y-2672500D03*
D13*
X-990000Y-2472500D03*
D13*
X-990000Y-2272500D03*
D13*
X-990000Y-2072500D03*
D13*
X990000Y-3272500D03*
D13*
X990000Y-3072500D03*
D13*
X990000Y-2872500D03*
D13*
X990000Y-2672500D03*
D13*
X990000Y-2472500D03*
D13*
X990000Y-2272500D03*
D13*
X990000Y-2072500D03*
%ADD14C,4.4*%
D14*
X-2505000Y3672500D03*
D14*
X2505000Y3672500D03*
D14*
X-2505000Y-3672500D03*
D14*
X2505000Y-3672500D03*
%ADD15C,0.25*%
D15*
X1235000Y2682500D02*
X-15000Y1432500D01*
D15*
X-15000Y1432500D02*
X-115000Y1432500D01*
D15*
X-115000Y1432500D02*
X-365000Y1182500D01*
D15*
X-365000Y1182500D02*
X-365000Y1132500D01*
D15*
X-365000Y1132500D02*
X-515000Y982500D01*
D15*
X-515000Y982500D02*
X-565000Y982500D01*
D15*
X-565000Y982500D02*
X-965000Y582500D01*
D15*
X-965000Y582500D02*
X-965000Y-167500D01*
D15*
X-965000Y-167500D02*
X-1015000Y-217500D01*
D15*
X-1015000Y-217500D02*
X-1015000Y-1767500D01*
D15*
X-1015000Y-1767500D02*
X-1065000Y-1817500D01*
D15*
X-1065000Y-1817500D02*
X-1065000Y-1867500D01*
D15*
X-1065000Y-1867500D02*
X-1215000Y-2017500D01*
D15*
X-1215000Y-2017500D02*
X-1215000Y-2117500D01*
D15*
X-1215000Y-2117500D02*
X-1115000Y-2217500D01*
D15*
X-1115000Y-2217500D02*
X-1065000Y-2217500D01*
D15*
X-1065000Y-2217500D02*
X-1065000Y-2267500D01*
D15*
X-1065000Y-2267500D02*
X-965000Y-2267500D01*
D15*
X-2265000Y2682500D02*
X-2165000Y2582500D01*
D15*
X-2165000Y2582500D02*
X-2165000Y2482500D01*
D15*
X-2165000Y2482500D02*
X-2115000Y2432500D01*
D15*
X-2115000Y2432500D02*
X-2115000Y2382500D01*
D15*
X-2115000Y2382500D02*
X-1665000Y1932500D01*
D15*
X-1665000Y1932500D02*
X-1665000Y132500D01*
D15*
X-1665000Y132500D02*
X-1715000Y82500D01*
D15*
X-1715000Y82500D02*
X-1715000Y-567500D01*
D15*
X-1715000Y-567500D02*
X-1665000Y-617500D01*
D15*
X-1665000Y-617500D02*
X-1665000Y-767500D01*
D15*
X-1665000Y-767500D02*
X-1515000Y-917500D01*
D15*
X-1515000Y-917500D02*
X-1515000Y-1917500D01*
D15*
X-1515000Y-1917500D02*
X-1465000Y-1967500D01*
D15*
X-1465000Y-1967500D02*
X-1465000Y-2017500D01*
D15*
X-1465000Y-2017500D02*
X-1365000Y-2117500D01*
D15*
X-1365000Y-2117500D02*
X-1365000Y-2167500D01*
D15*
X-1365000Y-2167500D02*
X-1315000Y-2217500D01*
D15*
X-1315000Y-2217500D02*
X-1315000Y-2417500D01*
D15*
X-1315000Y-2417500D02*
X-1265000Y-2467500D01*
D15*
X-1265000Y-2467500D02*
X-1265000Y-2517500D01*
D15*
X-1265000Y-2517500D02*
X-1165000Y-2617500D01*
D15*
X-1165000Y-2617500D02*
X-1065000Y-2617500D01*
D15*
X-1065000Y-2617500D02*
X-1065000Y-2667500D01*
D15*
X-1065000Y-2667500D02*
X-965000Y-2667500D01*
D15*
X-1115000Y-2417500D02*
X-1065000Y-2417500D01*
D15*
X-1065000Y-2417500D02*
X-1065000Y-2467500D01*
D15*
X-1065000Y-2467500D02*
X-965000Y-2467500D01*
D15*
X1135000Y-3267500D02*
X985000Y-3267500D01*
D15*
X1135000Y-2817500D02*
X1135000Y-2867500D01*
D15*
X1135000Y-2867500D02*
X985000Y-2867500D01*
D15*
X-1115000Y-2017500D02*
X-1065000Y-2017500D01*
D15*
X-1065000Y-2017500D02*
X-1065000Y-2067500D01*
D15*
X-1065000Y-2067500D02*
X-965000Y-2067500D01*
D15*
X1135000Y-767500D02*
X1085000Y-817500D01*
D15*
X1085000Y-817500D02*
X1085000Y-1817500D01*
D15*
X1085000Y-1817500D02*
X1335000Y-2067500D01*
D15*
X1335000Y-2067500D02*
X1335000Y-2867500D01*
D15*
X1335000Y-2867500D02*
X1285000Y-2917500D01*
D15*
X1285000Y-2917500D02*
X1285000Y-2967500D01*
D15*
X1285000Y-2967500D02*
X1185000Y-3067500D01*
D15*
X1185000Y-3067500D02*
X985000Y-3067500D01*
D15*
X1135000Y-2617500D02*
X1135000Y-2667500D01*
D15*
X1135000Y-2667500D02*
X985000Y-2667500D01*
D15*
X1235000Y-2367500D02*
X1135000Y-2467500D01*
D15*
X1135000Y-2467500D02*
X985000Y-2467500D01*
%ADD16C,0.7*%
D16*
X1235000Y2682500D03*
D16*
X-2265000Y2682500D03*
D16*
X-1115000Y-2417500D03*
D16*
X1135000Y-3267500D03*
D16*
X1135000Y-2817500D03*
D16*
X-1115000Y-2017500D03*
D16*
X1135000Y-767500D03*
D16*
X1135000Y-2617500D03*
D16*
X1235000Y-2367500D03*
M02*
