G04 keeberia — Edge.Cuts*
%FSLAX35Y35*%
%MOMM*%
%LPD*%
G01*
%ADD10C,0.1*%
D10*
X4487500Y-4372500D02*
X4482696Y-4421273D01*
D10*
X4482696Y-4421273D02*
X4468470Y-4468171D01*
D10*
X4468470Y-4468171D02*
X4445367Y-4511393D01*
D10*
X4445367Y-4511393D02*
X4414277Y-4549277D01*
D10*
X4414277Y-4549277D02*
X4376393Y-4580367D01*
D10*
X4376393Y-4580367D02*
X4333171Y-4603470D01*
D10*
X4333171Y-4603470D02*
X4286273Y-4617696D01*
D10*
X4286273Y-4617696D02*
X4237500Y-4622500D01*
D10*
X4237500Y-4622500D02*
X-4237500Y-4622500D01*
D10*
X-4237500Y-4622500D02*
X-4286273Y-4617696D01*
D10*
X-4286273Y-4617696D02*
X-4333171Y-4603470D01*
D10*
X-4333171Y-4603470D02*
X-4376393Y-4580367D01*
D10*
X-4376393Y-4580367D02*
X-4414277Y-4549277D01*
D10*
X-4414277Y-4549277D02*
X-4445367Y-4511393D01*
D10*
X-4445367Y-4511393D02*
X-4468470Y-4468171D01*
D10*
X-4468470Y-4468171D02*
X-4482696Y-4421273D01*
D10*
X-4482696Y-4421273D02*
X-4487500Y-4372500D01*
D10*
X-4487500Y-4372500D02*
X-4487500Y4372500D01*
D10*
X-4487500Y4372500D02*
X-4482696Y4421273D01*
D10*
X-4482696Y4421273D02*
X-4468470Y4468171D01*
D10*
X-4468470Y4468171D02*
X-4445367Y4511393D01*
D10*
X-4445367Y4511393D02*
X-4414277Y4549277D01*
D10*
X-4414277Y4549277D02*
X-4376393Y4580367D01*
D10*
X-4376393Y4580367D02*
X-4333171Y4603470D01*
D10*
X-4333171Y4603470D02*
X-4286273Y4617696D01*
D10*
X-4286273Y4617696D02*
X-4237500Y4622500D01*
D10*
X-4237500Y4622500D02*
X4237500Y4622500D01*
D10*
X4237500Y4622500D02*
X4286273Y4617696D01*
D10*
X4286273Y4617696D02*
X4333171Y4603470D01*
D10*
X4333171Y4603470D02*
X4376393Y4580367D01*
D10*
X4376393Y4580367D02*
X4414277Y4549277D01*
D10*
X4414277Y4549277D02*
X4445367Y4511393D01*
D10*
X4445367Y4511393D02*
X4468470Y4468171D01*
D10*
X4468470Y4468171D02*
X4482696Y4421273D01*
D10*
X4482696Y4421273D02*
X4487500Y4372500D01*
D10*
X4487500Y4372500D02*
X4487500Y-4372500D01*
M02*
