G04 keeberia — F.SilkS*
%FSLAX35Y35*%
%MOMM*%
%LPD*%
G01*
%ADD10C,0.15*%
D10*
X-132500Y3102500D02*
X997500Y3102500D01*
D10*
X997500Y3102500D02*
X997500Y1842500D01*
D10*
X997500Y1842500D02*
X-132500Y1842500D01*
D10*
X-132500Y1842500D02*
X-132500Y3102500D01*
D10*
X467500Y3042500D02*
X4207500Y3042500D01*
D10*
X4207500Y3042500D02*
X4207500Y1902500D01*
D10*
X4207500Y1902500D02*
X467500Y1902500D01*
D10*
X467500Y1902500D02*
X467500Y3042500D01*
D10*
X1202500Y2987500D02*
X3472500Y2987500D01*
D10*
X3472500Y2987500D02*
X3472500Y1957500D01*
D10*
X3472500Y1957500D02*
X1202500Y1957500D01*
D10*
X1202500Y1957500D02*
X1202500Y2987500D01*
D10*
X-3410833Y3432500D02*
X-3410833Y3352500D01*
D10*
X-3410833Y3352500D02*
X-3384167Y3392500D01*
D10*
X-3384167Y3392500D02*
X-3357500Y3352500D01*
D10*
X-3357500Y3352500D02*
X-3357500Y3432500D01*
D10*
X-3317500Y3432500D02*
X-3317500Y3352500D01*
D10*
X-3344167Y3405833D02*
X-3317500Y3352500D01*
D10*
X-3330833Y3432500D02*
X-3304167Y3432500D01*
D10*
X-1505833Y3432500D02*
X-1505833Y3352500D01*
D10*
X-1505833Y3352500D02*
X-1479167Y3392500D01*
D10*
X-1479167Y3392500D02*
X-1452500Y3352500D01*
D10*
X-1452500Y3352500D02*
X-1452500Y3432500D01*
D10*
X-1439167Y3365833D02*
X-1425833Y3352500D01*
D10*
X-1425833Y3352500D02*
X-1399167Y3352500D01*
D10*
X-1399167Y3352500D02*
X-1385833Y3365833D01*
D10*
X-1385833Y3365833D02*
X-1385833Y3379167D01*
D10*
X-1385833Y3379167D02*
X-1439167Y3432500D01*
D10*
X-1439167Y3432500D02*
X-1385833Y3432500D01*
D10*
X365833Y3432500D02*
X365833Y3352500D01*
D10*
X365833Y3352500D02*
X392500Y3392500D01*
D10*
X392500Y3392500D02*
X419167Y3352500D01*
D10*
X419167Y3352500D02*
X419167Y3432500D01*
D10*
X445833Y3432500D02*
X445833Y3352500D01*
D10*
X432500Y3352500D02*
X459167Y3352500D01*
D10*
X432500Y3432500D02*
X459167Y3432500D01*
D10*
X499167Y3432500D02*
X552500Y3352500D01*
D10*
X499167Y3352500D02*
X552500Y3432500D01*
D10*
X2204167Y3419167D02*
X2204167Y3365833D01*
D10*
X2204167Y3365833D02*
X2217500Y3352500D01*
D10*
X2217500Y3352500D02*
X2244167Y3352500D01*
D10*
X2244167Y3352500D02*
X2257500Y3365833D01*
D10*
X2257500Y3365833D02*
X2257500Y3419167D01*
D10*
X2257500Y3419167D02*
X2244167Y3432500D01*
D10*
X2244167Y3432500D02*
X2217500Y3432500D01*
D10*
X2217500Y3432500D02*
X2204167Y3419167D01*
D10*
X2270833Y3352500D02*
X2270833Y3432500D01*
D10*
X2270833Y3432500D02*
X2324167Y3432500D01*
D10*
X2390833Y3352500D02*
X2337500Y3352500D01*
D10*
X2337500Y3352500D02*
X2337500Y3432500D01*
D10*
X2337500Y3432500D02*
X2390833Y3432500D01*
D10*
X2337500Y3392500D02*
X2377500Y3392500D01*
D10*
X2404167Y3432500D02*
X2404167Y3352500D01*
D10*
X2404167Y3352500D02*
X2430833Y3352500D01*
D10*
X2430833Y3352500D02*
X2457500Y3379167D01*
D10*
X2457500Y3379167D02*
X2457500Y3405833D01*
D10*
X2457500Y3405833D02*
X2430833Y3432500D01*
D10*
X2430833Y3432500D02*
X2404167Y3432500D01*
D10*
X2497500Y3432500D02*
X2497500Y3352500D01*
D10*
X2470833Y3405833D02*
X2497500Y3352500D01*
D10*
X2484167Y3432500D02*
X2510833Y3432500D01*
D10*
X-3410833Y1527500D02*
X-3410833Y1447500D01*
D10*
X-3410833Y1447500D02*
X-3384167Y1487500D01*
D10*
X-3384167Y1487500D02*
X-3357500Y1447500D01*
D10*
X-3357500Y1447500D02*
X-3357500Y1527500D01*
D10*
X-3290833Y1447500D02*
X-3344167Y1447500D01*
D10*
X-3344167Y1447500D02*
X-3344167Y1487500D01*
D10*
X-3344167Y1487500D02*
X-3304167Y1487500D01*
D10*
X-3304167Y1487500D02*
X-3290833Y1500833D01*
D10*
X-3290833Y1500833D02*
X-3290833Y1514167D01*
D10*
X-3290833Y1514167D02*
X-3304167Y1527500D01*
D10*
X-3304167Y1527500D02*
X-3344167Y1527500D01*
D10*
X-1505833Y1527500D02*
X-1505833Y1447500D01*
D10*
X-1505833Y1447500D02*
X-1479167Y1487500D01*
D10*
X-1479167Y1487500D02*
X-1452500Y1447500D01*
D10*
X-1452500Y1447500D02*
X-1452500Y1527500D01*
D10*
X-1385833Y1447500D02*
X-1425833Y1447500D01*
D10*
X-1425833Y1447500D02*
X-1439167Y1460833D01*
D10*
X-1439167Y1460833D02*
X-1439167Y1514167D01*
D10*
X-1439167Y1514167D02*
X-1425833Y1527500D01*
D10*
X-1425833Y1527500D02*
X-1399167Y1527500D01*
D10*
X-1399167Y1527500D02*
X-1385833Y1514167D01*
D10*
X-1385833Y1514167D02*
X-1385833Y1500833D01*
D10*
X-1385833Y1500833D02*
X-1399167Y1487500D01*
D10*
X-1399167Y1487500D02*
X-1439167Y1487500D01*
D10*
X399167Y1527500D02*
X399167Y1447500D01*
D10*
X399167Y1447500D02*
X425833Y1487500D01*
D10*
X425833Y1487500D02*
X452500Y1447500D01*
D10*
X452500Y1447500D02*
X452500Y1527500D01*
D10*
X465833Y1447500D02*
X519167Y1447500D01*
D10*
X519167Y1447500D02*
X479167Y1527500D01*
D10*
X2304167Y1527500D02*
X2304167Y1447500D01*
D10*
X2304167Y1447500D02*
X2330833Y1487500D01*
D10*
X2330833Y1487500D02*
X2357500Y1447500D01*
D10*
X2357500Y1447500D02*
X2357500Y1527500D01*
D10*
X2370833Y1514167D02*
X2370833Y1460833D01*
D10*
X2370833Y1460833D02*
X2384167Y1447500D01*
D10*
X2384167Y1447500D02*
X2410833Y1447500D01*
D10*
X2410833Y1447500D02*
X2424167Y1460833D01*
D10*
X2424167Y1460833D02*
X2424167Y1514167D01*
D10*
X2424167Y1514167D02*
X2410833Y1527500D01*
D10*
X2410833Y1527500D02*
X2384167Y1527500D01*
D10*
X2384167Y1527500D02*
X2370833Y1514167D01*
D10*
X2370833Y1487500D02*
X2424167Y1487500D01*
D10*
X-3444167Y-377500D02*
X-3444167Y-457500D01*
D10*
X-3444167Y-457500D02*
X-3417500Y-417500D01*
D10*
X-3417500Y-417500D02*
X-3390833Y-457500D01*
D10*
X-3390833Y-457500D02*
X-3390833Y-377500D01*
D10*
X-3350833Y-377500D02*
X-3350833Y-457500D01*
D10*
X-3377500Y-404167D02*
X-3350833Y-457500D01*
D10*
X-3364167Y-377500D02*
X-3337500Y-377500D01*
D10*
X-3310833Y-377500D02*
X-3310833Y-457500D01*
D10*
X-3310833Y-457500D02*
X-3257500Y-457500D01*
D10*
X-3257500Y-457500D02*
X-3257500Y-377500D01*
D10*
X-3257500Y-377500D02*
X-3310833Y-377500D01*
D10*
X-1539167Y-377500D02*
X-1539167Y-457500D01*
D10*
X-1539167Y-457500D02*
X-1512500Y-417500D01*
D10*
X-1512500Y-417500D02*
X-1485833Y-457500D01*
D10*
X-1485833Y-457500D02*
X-1485833Y-377500D01*
D10*
X-1445833Y-377500D02*
X-1445833Y-457500D01*
D10*
X-1472500Y-404167D02*
X-1445833Y-457500D01*
D10*
X-1459167Y-377500D02*
X-1432500Y-377500D01*
D10*
X-1379167Y-377500D02*
X-1379167Y-457500D01*
D10*
X-1405833Y-404167D02*
X-1379167Y-457500D01*
D10*
X-1392500Y-377500D02*
X-1365833Y-377500D01*
D10*
X365833Y-377500D02*
X365833Y-457500D01*
D10*
X365833Y-457500D02*
X392500Y-417500D01*
D10*
X392500Y-417500D02*
X419167Y-457500D01*
D10*
X419167Y-457500D02*
X419167Y-377500D01*
D10*
X459167Y-377500D02*
X459167Y-457500D01*
D10*
X432500Y-404167D02*
X459167Y-457500D01*
D10*
X445833Y-377500D02*
X472500Y-377500D01*
D10*
X499167Y-444167D02*
X512500Y-457500D01*
D10*
X512500Y-457500D02*
X539167Y-457500D01*
D10*
X539167Y-457500D02*
X552500Y-444167D01*
D10*
X552500Y-444167D02*
X552500Y-430833D01*
D10*
X552500Y-430833D02*
X499167Y-377500D01*
D10*
X499167Y-377500D02*
X552500Y-377500D01*
D10*
X2270833Y-377500D02*
X2270833Y-457500D01*
D10*
X2270833Y-457500D02*
X2297500Y-417500D01*
D10*
X2297500Y-417500D02*
X2324167Y-457500D01*
D10*
X2324167Y-457500D02*
X2324167Y-377500D01*
D10*
X2364167Y-377500D02*
X2364167Y-457500D01*
D10*
X2337500Y-404167D02*
X2364167Y-457500D01*
D10*
X2350833Y-377500D02*
X2377500Y-377500D01*
D10*
X2404167Y-457500D02*
X2444167Y-457500D01*
D10*
X2444167Y-457500D02*
X2457500Y-444167D01*
D10*
X2457500Y-444167D02*
X2430833Y-417500D01*
D10*
X2430833Y-417500D02*
X2457500Y-390833D01*
D10*
X2457500Y-390833D02*
X2444167Y-377500D01*
D10*
X2444167Y-377500D02*
X2404167Y-377500D01*
M02*
