<svg xmlns="http://www.w3.org/2000/svg" width="640" height="857" viewBox="0 0 640 857"><rect x="0" y="0" width="640" height="857" fill="#111"/><rect x="19.91" y="19.91" width="600.19" height="816.67" rx="24.88" fill="#144b14" stroke="#39d353" stroke-width="1"/><rect x="29.86" y="29.86" width="580.28" height="796.77" rx="3" fill="#0d3a0d" opacity="0.55"/><line x1="188.12" y1="78.63" x2="208.02" y2="78.63" stroke="#37b3ff" stroke-width="3.98" stroke-linecap="round" opacity="0.95"/><line x1="208.02" y1="78.63" x2="208.02" y2="83.61" stroke="#37b3ff" stroke-width="3.98" stroke-linecap="round" opacity="0.95"/><line x1="208.02" y1="83.61" x2="213.00" y2="88.58" stroke="#37b3ff" stroke-width="3.98" stroke-linecap="round" opacity="0.95"/><line x1="213.00" y1="88.58" x2="213.00" y2="103.51" stroke="#37b3ff" stroke-width="3.98" stroke-linecap="round" opacity="0.95"/><line x1="213.00" y1="103.51" x2="217.98" y2="108.49" stroke="#37b3ff" stroke-width="3.98" stroke-linecap="round" opacity="0.95"/><line x1="217.98" y1="108.49" x2="217.98" y2="113.47" stroke="#37b3ff" stroke-width="3.98" stroke-linecap="round" opacity="0.95"/><line x1="217.98" y1="113.47" x2="292.63" y2="188.12" stroke="#37b3ff" stroke-width="3.98" stroke-linecap="round" opacity="0.95"/><line x1="292.63" y1="188.12" x2="292.63" y2="327.47" stroke="#37b3ff" stroke-width="3.98" stroke-linecap="round" opacity="0.95"/><line x1="292.63" y1="327.47" x2="297.60" y2="332.44" stroke="#37b3ff" stroke-width="3.98" stroke-linecap="round" opacity="0.95"/><line x1="297.60" y1="332.44" x2="297.60" y2="337.42" stroke="#37b3ff" stroke-width="3.98" stroke-linecap="round" opacity="0.95"/><line x1="297.60" y1="337.42" x2="347.37" y2="387.19" stroke="#37b3ff" stroke-width="3.98" stroke-linecap="round" opacity="0.95"/><line x1="347.37" y1="387.19" x2="347.37" y2="451.88" stroke="#37b3ff" stroke-width="3.98" stroke-linecap="round" opacity="0.95"/><line x1="347.37" y1="451.88" x2="352.35" y2="456.86" stroke="#37b3ff" stroke-width="3.98" stroke-linecap="round" opacity="0.95"/><line x1="352.35" y1="456.86" x2="352.35" y2="466.81" stroke="#37b3ff" stroke-width="3.98" stroke-linecap="round" opacity="0.95"/><line x1="352.35" y1="466.81" x2="357.33" y2="471.79" stroke="#37b3ff" stroke-width="3.98" stroke-linecap="round" opacity="0.95"/><line x1="357.33" y1="471.79" x2="357.33" y2="481.74" stroke="#37b3ff" stroke-width="3.98" stroke-linecap="round" opacity="0.95"/><line x1="357.33" y1="481.74" x2="372.26" y2="496.67" stroke="#37b3ff" stroke-width="3.98" stroke-linecap="round" opacity="0.95"/><line x1="372.26" y1="496.67" x2="382.21" y2="496.67" stroke="#37b3ff" stroke-width="3.98" stroke-linecap="round" opacity="0.95"/><line x1="382.21" y1="496.67" x2="412.07" y2="526.53" stroke="#37b3ff" stroke-width="3.98" stroke-linecap="round" opacity="0.95"/><line x1="412.07" y1="526.53" x2="412.07" y2="546.44" stroke="#37b3ff" stroke-width="3.98" stroke-linecap="round" opacity="0.95"/><line x1="412.07" y1="546.44" x2="451.88" y2="586.25" stroke="#37b3ff" stroke-width="3.98" stroke-linecap="round" opacity="0.95"/><line x1="451.88" y1="586.25" x2="451.88" y2="636.02" stroke="#37b3ff" stroke-width="3.98" stroke-linecap="round" opacity="0.95"/><line x1="451.88" y1="636.02" x2="476.77" y2="660.90" stroke="#37b3ff" stroke-width="3.98" stroke-linecap="round" opacity="0.95"/><line x1="476.77" y1="660.90" x2="476.77" y2="700.72" stroke="#37b3ff" stroke-width="3.98" stroke-linecap="round" opacity="0.95"/><line x1="476.77" y1="700.72" x2="466.81" y2="710.67" stroke="#37b3ff" stroke-width="3.98" stroke-linecap="round" opacity="0.95"/><line x1="466.81" y1="710.67" x2="466.81" y2="715.65" stroke="#37b3ff" stroke-width="3.98" stroke-linecap="round" opacity="0.95"/><line x1="466.81" y1="715.65" x2="446.91" y2="735.55" stroke="#37b3ff" stroke-width="3.98" stroke-linecap="round" opacity="0.95"/><line x1="446.91" y1="735.55" x2="441.93" y2="735.55" stroke="#37b3ff" stroke-width="3.98" stroke-linecap="round" opacity="0.95"/><line x1="441.93" y1="735.55" x2="436.95" y2="740.53" stroke="#37b3ff" stroke-width="3.98" stroke-linecap="round" opacity="0.95"/><line x1="436.95" y1="740.53" x2="417.05" y2="740.53" stroke="#37b3ff" stroke-width="3.98" stroke-linecap="round" opacity="0.95"/><line x1="566.35" y1="267.74" x2="546.44" y2="267.74" stroke="#37b3ff" stroke-width="3.98" stroke-linecap="round" opacity="0.95"/><line x1="546.44" y1="267.74" x2="546.44" y2="272.72" stroke="#37b3ff" stroke-width="3.98" stroke-linecap="round" opacity="0.95"/><line x1="546.44" y1="272.72" x2="541.46" y2="277.70" stroke="#37b3ff" stroke-width="3.98" stroke-linecap="round" opacity="0.95"/><line x1="541.46" y1="277.70" x2="541.46" y2="327.47" stroke="#37b3ff" stroke-width="3.98" stroke-linecap="round" opacity="0.95"/><line x1="541.46" y1="327.47" x2="486.72" y2="382.21" stroke="#37b3ff" stroke-width="3.98" stroke-linecap="round" opacity="0.95"/><line x1="486.72" y1="382.21" x2="486.72" y2="387.19" stroke="#37b3ff" stroke-width="3.98" stroke-linecap="round" opacity="0.95"/><line x1="486.72" y1="387.19" x2="422.02" y2="451.88" stroke="#37b3ff" stroke-width="3.98" stroke-linecap="round" opacity="0.95"/><line x1="422.02" y1="451.88" x2="422.02" y2="471.79" stroke="#37b3ff" stroke-width="3.98" stroke-linecap="round" opacity="0.95"/><line x1="422.02" y1="471.79" x2="402.12" y2="491.70" stroke="#37b3ff" stroke-width="3.98" stroke-linecap="round" opacity="0.95"/><line x1="402.12" y1="491.70" x2="402.12" y2="501.65" stroke="#37b3ff" stroke-width="3.98" stroke-linecap="round" opacity="0.95"/><line x1="402.12" y1="501.65" x2="392.16" y2="511.60" stroke="#37b3ff" stroke-width="3.98" stroke-linecap="round" opacity="0.95"/><line x1="392.16" y1="511.60" x2="392.16" y2="516.58" stroke="#37b3ff" stroke-width="3.98" stroke-linecap="round" opacity="0.95"/><line x1="392.16" y1="516.58" x2="312.53" y2="596.21" stroke="#37b3ff" stroke-width="3.98" stroke-linecap="round" opacity="0.95"/><line x1="312.53" y1="596.21" x2="237.88" y2="596.21" stroke="#37b3ff" stroke-width="3.98" stroke-linecap="round" opacity="0.95"/><line x1="237.88" y1="596.21" x2="193.09" y2="641.00" stroke="#37b3ff" stroke-width="3.98" stroke-linecap="round" opacity="0.95"/><line x1="193.09" y1="641.00" x2="193.09" y2="660.90" stroke="#37b3ff" stroke-width="3.98" stroke-linecap="round" opacity="0.95"/><line x1="193.09" y1="660.90" x2="208.02" y2="675.83" stroke="#37b3ff" stroke-width="3.98" stroke-linecap="round" opacity="0.95"/><line x1="208.02" y1="675.83" x2="208.02" y2="680.81" stroke="#37b3ff" stroke-width="3.98" stroke-linecap="round" opacity="0.95"/><line x1="208.02" y1="680.81" x2="222.95" y2="680.81" stroke="#37b3ff" stroke-width="3.98" stroke-linecap="round" opacity="0.95"/><line x1="377.23" y1="78.63" x2="397.14" y2="78.63" stroke="#37b3ff" stroke-width="3.98" stroke-linecap="round" opacity="0.95"/><line x1="397.14" y1="78.63" x2="397.14" y2="88.58" stroke="#37b3ff" stroke-width="3.98" stroke-linecap="round" opacity="0.95"/><line x1="397.14" y1="88.58" x2="407.09" y2="98.54" stroke="#37b3ff" stroke-width="3.98" stroke-linecap="round" opacity="0.95"/><line x1="407.09" y1="98.54" x2="407.09" y2="267.74" stroke="#37b3ff" stroke-width="3.98" stroke-linecap="round" opacity="0.95"/><line x1="407.09" y1="267.74" x2="412.07" y2="272.72" stroke="#37b3ff" stroke-width="3.98" stroke-linecap="round" opacity="0.95"/><line x1="412.07" y1="272.72" x2="412.07" y2="302.58" stroke="#37b3ff" stroke-width="3.98" stroke-linecap="round" opacity="0.95"/><line x1="412.07" y1="302.58" x2="431.98" y2="322.49" stroke="#37b3ff" stroke-width="3.98" stroke-linecap="round" opacity="0.95"/><line x1="431.98" y1="322.49" x2="431.98" y2="347.37" stroke="#37b3ff" stroke-width="3.98" stroke-linecap="round" opacity="0.95"/><line x1="431.98" y1="347.37" x2="436.95" y2="352.35" stroke="#37b3ff" stroke-width="3.98" stroke-linecap="round" opacity="0.95"/><line x1="436.95" y1="352.35" x2="436.95" y2="362.30" stroke="#37b3ff" stroke-width="3.98" stroke-linecap="round" opacity="0.95"/><line x1="436.95" y1="362.30" x2="441.93" y2="367.28" stroke="#37b3ff" stroke-width="3.98" stroke-linecap="round" opacity="0.95"/><line x1="441.93" y1="367.28" x2="441.93" y2="427.00" stroke="#37b3ff" stroke-width="3.98" stroke-linecap="round" opacity="0.95"/><line x1="441.93" y1="427.00" x2="446.91" y2="431.98" stroke="#37b3ff" stroke-width="3.98" stroke-linecap="round" opacity="0.95"/><line x1="446.91" y1="431.98" x2="446.91" y2="451.88" stroke="#37b3ff" stroke-width="3.98" stroke-linecap="round" opacity="0.95"/><line x1="446.91" y1="451.88" x2="461.84" y2="466.81" stroke="#37b3ff" stroke-width="3.98" stroke-linecap="round" opacity="0.95"/><line x1="461.84" y1="466.81" x2="461.84" y2="471.79" stroke="#37b3ff" stroke-width="3.98" stroke-linecap="round" opacity="0.95"/><line x1="461.84" y1="471.79" x2="466.81" y2="476.77" stroke="#37b3ff" stroke-width="3.98" stroke-linecap="round" opacity="0.95"/><line x1="466.81" y1="476.77" x2="466.81" y2="486.72" stroke="#37b3ff" stroke-width="3.98" stroke-linecap="round" opacity="0.95"/><line x1="466.81" y1="486.72" x2="481.74" y2="501.65" stroke="#37b3ff" stroke-width="3.98" stroke-linecap="round" opacity="0.95"/><line x1="481.74" y1="501.65" x2="481.74" y2="700.72" stroke="#37b3ff" stroke-width="3.98" stroke-linecap="round" opacity="0.95"/><line x1="481.74" y1="700.72" x2="476.77" y2="705.69" stroke="#37b3ff" stroke-width="3.98" stroke-linecap="round" opacity="0.95"/><line x1="476.77" y1="705.69" x2="476.77" y2="710.67" stroke="#37b3ff" stroke-width="3.98" stroke-linecap="round" opacity="0.95"/><line x1="476.77" y1="710.67" x2="431.98" y2="755.46" stroke="#37b3ff" stroke-width="3.98" stroke-linecap="round" opacity="0.95"/><line x1="431.98" y1="755.46" x2="431.98" y2="760.44" stroke="#37b3ff" stroke-width="3.98" stroke-linecap="round" opacity="0.95"/><line x1="431.98" y1="760.44" x2="417.05" y2="760.44" stroke="#37b3ff" stroke-width="3.98" stroke-linecap="round" opacity="0.95"/><line x1="536.49" y1="208.02" x2="551.42" y2="208.02" stroke="#c95b0e" stroke-width="3.98" stroke-linecap="round" opacity="0.95"/><line x1="551.42" y1="208.02" x2="551.42" y2="217.98" stroke="#c95b0e" stroke-width="3.98" stroke-linecap="round" opacity="0.95"/><line x1="551.42" y1="217.98" x2="546.44" y2="222.95" stroke="#c95b0e" stroke-width="3.98" stroke-linecap="round" opacity="0.95"/><line x1="546.44" y1="222.95" x2="541.46" y2="222.95" stroke="#c95b0e" stroke-width="3.98" stroke-linecap="round" opacity="0.95"/><line x1="541.46" y1="222.95" x2="481.74" y2="282.67" stroke="#c95b0e" stroke-width="3.98" stroke-linecap="round" opacity="0.95"/><line x1="481.74" y1="282.67" x2="481.74" y2="287.65" stroke="#c95b0e" stroke-width="3.98" stroke-linecap="round" opacity="0.95"/><line x1="481.74" y1="287.65" x2="486.72" y2="292.63" stroke="#c95b0e" stroke-width="3.98" stroke-linecap="round" opacity="0.95"/><line x1="486.72" y1="292.63" x2="486.72" y2="307.56" stroke="#c95b0e" stroke-width="3.98" stroke-linecap="round" opacity="0.95"/><line x1="486.72" y1="307.56" x2="481.74" y2="312.53" stroke="#c95b0e" stroke-width="3.98" stroke-linecap="round" opacity="0.95"/><line x1="481.74" y1="312.53" x2="481.74" y2="511.60" stroke="#c95b0e" stroke-width="3.98" stroke-linecap="round" opacity="0.95"/><line x1="481.74" y1="511.60" x2="476.77" y2="516.58" stroke="#c95b0e" stroke-width="3.98" stroke-linecap="round" opacity="0.95"/><line x1="476.77" y1="516.58" x2="476.77" y2="521.56" stroke="#c95b0e" stroke-width="3.98" stroke-linecap="round" opacity="0.95"/><line x1="476.77" y1="521.56" x2="461.84" y2="536.49" stroke="#c95b0e" stroke-width="3.98" stroke-linecap="round" opacity="0.95"/><line x1="461.84" y1="536.49" x2="461.84" y2="655.93" stroke="#c95b0e" stroke-width="3.98" stroke-linecap="round" opacity="0.95"/><line x1="461.84" y1="655.93" x2="456.86" y2="660.90" stroke="#c95b0e" stroke-width="3.98" stroke-linecap="round" opacity="0.95"/><line x1="456.86" y1="660.90" x2="456.86" y2="675.83" stroke="#c95b0e" stroke-width="3.98" stroke-linecap="round" opacity="0.95"/><line x1="456.86" y1="675.83" x2="446.91" y2="685.79" stroke="#c95b0e" stroke-width="3.98" stroke-linecap="round" opacity="0.95"/><line x1="446.91" y1="685.79" x2="446.91" y2="690.76" stroke="#c95b0e" stroke-width="3.98" stroke-linecap="round" opacity="0.95"/><line x1="446.91" y1="690.76" x2="441.93" y2="695.74" stroke="#c95b0e" stroke-width="3.98" stroke-linecap="round" opacity="0.95"/><line x1="441.93" y1="695.74" x2="441.93" y2="710.67" stroke="#c95b0e" stroke-width="3.98" stroke-linecap="round" opacity="0.95"/><line x1="441.93" y1="710.67" x2="436.95" y2="715.65" stroke="#c95b0e" stroke-width="3.98" stroke-linecap="round" opacity="0.95"/><line x1="436.95" y1="715.65" x2="431.98" y2="720.62" stroke="#37b3ff" stroke-width="3.98" stroke-linecap="round" opacity="0.95"/><line x1="431.98" y1="720.62" x2="417.05" y2="720.62" stroke="#37b3ff" stroke-width="3.98" stroke-linecap="round" opacity="0.95"/><line x1="566.35" y1="456.86" x2="541.46" y2="456.86" stroke="#37b3ff" stroke-width="3.98" stroke-linecap="round" opacity="0.95"/><line x1="541.46" y1="456.86" x2="521.56" y2="476.77" stroke="#37b3ff" stroke-width="3.98" stroke-linecap="round" opacity="0.95"/><line x1="521.56" y1="476.77" x2="506.63" y2="476.77" stroke="#37b3ff" stroke-width="3.98" stroke-linecap="round" opacity="0.95"/><line x1="506.63" y1="476.77" x2="501.65" y2="481.74" stroke="#37b3ff" stroke-width="3.98" stroke-linecap="round" opacity="0.95"/><line x1="501.65" y1="481.74" x2="496.67" y2="481.74" stroke="#37b3ff" stroke-width="3.98" stroke-linecap="round" opacity="0.95"/><line x1="496.67" y1="481.74" x2="471.79" y2="506.63" stroke="#37b3ff" stroke-width="3.98" stroke-linecap="round" opacity="0.95"/><line x1="471.79" y1="506.63" x2="471.79" y2="521.56" stroke="#37b3ff" stroke-width="3.98" stroke-linecap="round" opacity="0.95"/><line x1="471.79" y1="521.56" x2="466.81" y2="521.56" stroke="#37b3ff" stroke-width="3.98" stroke-linecap="round" opacity="0.95"/><line x1="466.81" y1="521.56" x2="431.98" y2="556.39" stroke="#37b3ff" stroke-width="3.98" stroke-linecap="round" opacity="0.95"/><line x1="431.98" y1="556.39" x2="427.00" y2="556.39" stroke="#37b3ff" stroke-width="3.98" stroke-linecap="round" opacity="0.95"/><line x1="427.00" y1="556.39" x2="387.19" y2="596.21" stroke="#37b3ff" stroke-width="3.98" stroke-linecap="round" opacity="0.95"/><line x1="387.19" y1="596.21" x2="317.51" y2="596.21" stroke="#37b3ff" stroke-width="3.98" stroke-linecap="round" opacity="0.95"/><line x1="317.51" y1="596.21" x2="312.53" y2="591.23" stroke="#37b3ff" stroke-width="3.98" stroke-linecap="round" opacity="0.95"/><line x1="312.53" y1="591.23" x2="237.88" y2="591.23" stroke="#37b3ff" stroke-width="3.98" stroke-linecap="round" opacity="0.95"/><line x1="237.88" y1="591.23" x2="227.93" y2="601.18" stroke="#37b3ff" stroke-width="3.98" stroke-linecap="round" opacity="0.95"/><line x1="227.93" y1="601.18" x2="208.02" y2="601.18" stroke="#37b3ff" stroke-width="3.98" stroke-linecap="round" opacity="0.95"/><line x1="208.02" y1="601.18" x2="178.16" y2="631.04" stroke="#37b3ff" stroke-width="3.98" stroke-linecap="round" opacity="0.95"/><line x1="178.16" y1="631.04" x2="178.16" y2="650.95" stroke="#37b3ff" stroke-width="3.98" stroke-linecap="round" opacity="0.95"/><line x1="178.16" y1="650.95" x2="173.19" y2="655.93" stroke="#37b3ff" stroke-width="3.98" stroke-linecap="round" opacity="0.95"/><line x1="173.19" y1="655.93" x2="173.19" y2="660.90" stroke="#37b3ff" stroke-width="3.98" stroke-linecap="round" opacity="0.95"/><line x1="173.19" y1="660.90" x2="168.21" y2="665.88" stroke="#37b3ff" stroke-width="3.98" stroke-linecap="round" opacity="0.95"/><line x1="168.21" y1="665.88" x2="168.21" y2="680.81" stroke="#37b3ff" stroke-width="3.98" stroke-linecap="round" opacity="0.95"/><line x1="168.21" y1="680.81" x2="183.14" y2="695.74" stroke="#37b3ff" stroke-width="3.98" stroke-linecap="round" opacity="0.95"/><line x1="183.14" y1="695.74" x2="183.14" y2="700.72" stroke="#37b3ff" stroke-width="3.98" stroke-linecap="round" opacity="0.95"/><line x1="183.14" y1="700.72" x2="188.12" y2="705.69" stroke="#37b3ff" stroke-width="3.98" stroke-linecap="round" opacity="0.95"/><line x1="188.12" y1="705.69" x2="188.12" y2="710.67" stroke="#37b3ff" stroke-width="3.98" stroke-linecap="round" opacity="0.95"/><line x1="188.12" y1="710.67" x2="203.05" y2="725.60" stroke="#37b3ff" stroke-width="3.98" stroke-linecap="round" opacity="0.95"/><line x1="203.05" y1="725.60" x2="203.05" y2="735.55" stroke="#37b3ff" stroke-width="3.98" stroke-linecap="round" opacity="0.95"/><line x1="203.05" y1="735.55" x2="208.02" y2="740.53" stroke="#37b3ff" stroke-width="3.98" stroke-linecap="round" opacity="0.95"/><line x1="208.02" y1="740.53" x2="222.95" y2="740.53" stroke="#37b3ff" stroke-width="3.98" stroke-linecap="round" opacity="0.95"/><line x1="377.23" y1="267.74" x2="397.14" y2="267.74" stroke="#37b3ff" stroke-width="3.98" stroke-linecap="round" opacity="0.95"/><line x1="397.14" y1="267.74" x2="402.12" y2="272.72" stroke="#37b3ff" stroke-width="3.98" stroke-linecap="round" opacity="0.95"/><line x1="402.12" y1="272.72" x2="402.12" y2="282.67" stroke="#37b3ff" stroke-width="3.98" stroke-linecap="round" opacity="0.95"/><line x1="402.12" y1="282.67" x2="397.14" y2="287.65" stroke="#37b3ff" stroke-width="3.98" stroke-linecap="round" opacity="0.95"/><line x1="397.14" y1="287.65" x2="397.14" y2="312.53" stroke="#37b3ff" stroke-width="3.98" stroke-linecap="round" opacity="0.95"/><line x1="397.14" y1="312.53" x2="392.16" y2="317.51" stroke="#37b3ff" stroke-width="3.98" stroke-linecap="round" opacity="0.95"/><line x1="392.16" y1="317.51" x2="392.16" y2="322.49" stroke="#37b3ff" stroke-width="3.98" stroke-linecap="round" opacity="0.95"/><line x1="392.16" y1="322.49" x2="362.30" y2="352.35" stroke="#37b3ff" stroke-width="3.98" stroke-linecap="round" opacity="0.95"/><line x1="362.30" y1="352.35" x2="362.30" y2="357.33" stroke="#37b3ff" stroke-width="3.98" stroke-linecap="round" opacity="0.95"/><line x1="362.30" y1="357.33" x2="287.65" y2="431.98" stroke="#37b3ff" stroke-width="3.98" stroke-linecap="round" opacity="0.95"/><line x1="287.65" y1="431.98" x2="287.65" y2="496.67" stroke="#37b3ff" stroke-width="3.98" stroke-linecap="round" opacity="0.95"/><line x1="287.65" y1="496.67" x2="292.63" y2="501.65" stroke="#37b3ff" stroke-width="3.98" stroke-linecap="round" opacity="0.95"/><line x1="292.63" y1="501.65" x2="292.63" y2="511.60" stroke="#37b3ff" stroke-width="3.98" stroke-linecap="round" opacity="0.95"/><line x1="292.63" y1="511.60" x2="287.65" y2="516.58" stroke="#37b3ff" stroke-width="3.98" stroke-linecap="round" opacity="0.95"/><line x1="287.65" y1="516.58" x2="287.65" y2="521.56" stroke="#37b3ff" stroke-width="3.98" stroke-linecap="round" opacity="0.95"/><line x1="287.65" y1="521.56" x2="213.00" y2="596.21" stroke="#37b3ff" stroke-width="3.98" stroke-linecap="round" opacity="0.95"/><line x1="213.00" y1="596.21" x2="208.02" y2="596.21" stroke="#37b3ff" stroke-width="3.98" stroke-linecap="round" opacity="0.95"/><line x1="208.02" y1="596.21" x2="203.05" y2="601.18" stroke="#37b3ff" stroke-width="3.98" stroke-linecap="round" opacity="0.95"/><line x1="203.05" y1="601.18" x2="208.02" y2="606.16" stroke="#37b3ff" stroke-width="3.98" stroke-linecap="round" opacity="0.95"/><line x1="208.02" y1="606.16" x2="208.02" y2="621.09" stroke="#37b3ff" stroke-width="3.98" stroke-linecap="round" opacity="0.95"/><line x1="208.02" y1="621.09" x2="213.00" y2="626.07" stroke="#37b3ff" stroke-width="3.98" stroke-linecap="round" opacity="0.95"/><line x1="213.00" y1="626.07" x2="203.05" y2="636.02" stroke="#37b3ff" stroke-width="3.98" stroke-linecap="round" opacity="0.95"/><line x1="203.05" y1="636.02" x2="203.05" y2="645.97" stroke="#37b3ff" stroke-width="3.98" stroke-linecap="round" opacity="0.95"/><line x1="203.05" y1="645.97" x2="208.02" y2="650.95" stroke="#37b3ff" stroke-width="3.98" stroke-linecap="round" opacity="0.95"/><line x1="208.02" y1="650.95" x2="208.02" y2="660.90" stroke="#37b3ff" stroke-width="3.98" stroke-linecap="round" opacity="0.95"/><line x1="208.02" y1="660.90" x2="222.95" y2="660.90" stroke="#37b3ff" stroke-width="3.98" stroke-linecap="round" opacity="0.95"/><line x1="486.72" y1="208.02" x2="486.72" y2="227.93" stroke="#c95b0e" stroke-width="3.98" stroke-linecap="round" opacity="0.95"/><line x1="486.72" y1="227.93" x2="456.86" y2="257.79" stroke="#c95b0e" stroke-width="3.98" stroke-linecap="round" opacity="0.95"/><line x1="456.86" y1="257.79" x2="456.86" y2="262.77" stroke="#c95b0e" stroke-width="3.98" stroke-linecap="round" opacity="0.95"/><line x1="456.86" y1="262.77" x2="441.93" y2="277.70" stroke="#c95b0e" stroke-width="3.98" stroke-linecap="round" opacity="0.95"/><line x1="441.93" y1="277.70" x2="441.93" y2="302.58" stroke="#c95b0e" stroke-width="3.98" stroke-linecap="round" opacity="0.95"/><line x1="441.93" y1="302.58" x2="417.05" y2="327.47" stroke="#c95b0e" stroke-width="3.98" stroke-linecap="round" opacity="0.95"/><line x1="417.05" y1="327.47" x2="417.05" y2="680.81" stroke="#c95b0e" stroke-width="3.98" stroke-linecap="round" opacity="0.95"/><line x1="417.05" y1="680.81" x2="431.98" y2="695.74" stroke="#c95b0e" stroke-width="3.98" stroke-linecap="round" opacity="0.95"/><line x1="431.98" y1="695.74" x2="431.98" y2="700.72" stroke="#37b3ff" stroke-width="3.98" stroke-linecap="round" opacity="0.95"/><line x1="431.98" y1="700.72" x2="417.05" y2="700.72" stroke="#37b3ff" stroke-width="3.98" stroke-linecap="round" opacity="0.95"/><line x1="377.23" y1="456.86" x2="397.14" y2="456.86" stroke="#37b3ff" stroke-width="3.98" stroke-linecap="round" opacity="0.95"/><line x1="397.14" y1="456.86" x2="402.12" y2="461.84" stroke="#37b3ff" stroke-width="3.98" stroke-linecap="round" opacity="0.95"/><line x1="402.12" y1="461.84" x2="402.12" y2="471.79" stroke="#37b3ff" stroke-width="3.98" stroke-linecap="round" opacity="0.95"/><line x1="402.12" y1="471.79" x2="392.16" y2="481.74" stroke="#37b3ff" stroke-width="3.98" stroke-linecap="round" opacity="0.95"/><line x1="392.16" y1="481.74" x2="392.16" y2="501.65" stroke="#37b3ff" stroke-width="3.98" stroke-linecap="round" opacity="0.95"/><line x1="392.16" y1="501.65" x2="387.19" y2="506.63" stroke="#37b3ff" stroke-width="3.98" stroke-linecap="round" opacity="0.95"/><line x1="387.19" y1="506.63" x2="387.19" y2="516.58" stroke="#37b3ff" stroke-width="3.98" stroke-linecap="round" opacity="0.95"/><line x1="387.19" y1="516.58" x2="382.21" y2="521.56" stroke="#37b3ff" stroke-width="3.98" stroke-linecap="round" opacity="0.95"/><line x1="382.21" y1="521.56" x2="377.23" y2="521.56" stroke="#37b3ff" stroke-width="3.98" stroke-linecap="round" opacity="0.95"/><line x1="377.23" y1="521.56" x2="322.49" y2="576.30" stroke="#37b3ff" stroke-width="3.98" stroke-linecap="round" opacity="0.95"/><line x1="322.49" y1="576.30" x2="297.60" y2="576.30" stroke="#37b3ff" stroke-width="3.98" stroke-linecap="round" opacity="0.95"/><line x1="297.60" y1="576.30" x2="292.63" y2="571.32" stroke="#37b3ff" stroke-width="3.98" stroke-linecap="round" opacity="0.95"/><line x1="292.63" y1="571.32" x2="242.86" y2="571.32" stroke="#37b3ff" stroke-width="3.98" stroke-linecap="round" opacity="0.95"/><line x1="242.86" y1="571.32" x2="237.88" y2="566.35" stroke="#37b3ff" stroke-width="3.98" stroke-linecap="round" opacity="0.95"/><line x1="237.88" y1="566.35" x2="227.93" y2="566.35" stroke="#37b3ff" stroke-width="3.98" stroke-linecap="round" opacity="0.95"/><line x1="227.93" y1="566.35" x2="168.21" y2="626.07" stroke="#37b3ff" stroke-width="3.98" stroke-linecap="round" opacity="0.95"/><line x1="168.21" y1="626.07" x2="168.21" y2="645.97" stroke="#37b3ff" stroke-width="3.98" stroke-linecap="round" opacity="0.95"/><line x1="168.21" y1="645.97" x2="163.23" y2="650.95" stroke="#37b3ff" stroke-width="3.98" stroke-linecap="round" opacity="0.95"/><line x1="163.23" y1="650.95" x2="163.23" y2="680.81" stroke="#37b3ff" stroke-width="3.98" stroke-linecap="round" opacity="0.95"/><line x1="163.23" y1="680.81" x2="178.16" y2="695.74" stroke="#37b3ff" stroke-width="3.98" stroke-linecap="round" opacity="0.95"/><line x1="178.16" y1="695.74" x2="178.16" y2="700.72" stroke="#37b3ff" stroke-width="3.98" stroke-linecap="round" opacity="0.95"/><line x1="178.16" y1="700.72" x2="183.14" y2="705.69" stroke="#37b3ff" stroke-width="3.98" stroke-linecap="round" opacity="0.95"/><line x1="183.14" y1="705.69" x2="183.14" y2="710.67" stroke="#37b3ff" stroke-width="3.98" stroke-linecap="round" opacity="0.95"/><line x1="183.14" y1="710.67" x2="193.09" y2="720.62" stroke="#37b3ff" stroke-width="3.98" stroke-linecap="round" opacity="0.95"/><line x1="193.09" y1="720.62" x2="198.07" y2="715.65" stroke="#37b3ff" stroke-width="3.98" stroke-linecap="round" opacity="0.95"/><line x1="198.07" y1="715.65" x2="203.05" y2="715.65" stroke="#37b3ff" stroke-width="3.98" stroke-linecap="round" opacity="0.95"/><line x1="203.05" y1="715.65" x2="208.02" y2="720.62" stroke="#37b3ff" stroke-width="3.98" stroke-linecap="round" opacity="0.95"/><line x1="208.02" y1="720.62" x2="222.95" y2="720.62" stroke="#37b3ff" stroke-width="3.98" stroke-linecap="round" opacity="0.95"/><line x1="188.12" y1="267.74" x2="208.02" y2="267.74" stroke="#37b3ff" stroke-width="3.98" stroke-linecap="round" opacity="0.95"/><line x1="208.02" y1="267.74" x2="208.02" y2="282.67" stroke="#37b3ff" stroke-width="3.98" stroke-linecap="round" opacity="0.95"/><line x1="208.02" y1="282.67" x2="193.09" y2="297.60" stroke="#37b3ff" stroke-width="3.98" stroke-linecap="round" opacity="0.95"/><line x1="193.09" y1="297.60" x2="193.09" y2="352.35" stroke="#37b3ff" stroke-width="3.98" stroke-linecap="round" opacity="0.95"/><line x1="193.09" y1="352.35" x2="158.26" y2="387.19" stroke="#37b3ff" stroke-width="3.98" stroke-linecap="round" opacity="0.95"/><line x1="158.26" y1="387.19" x2="158.26" y2="591.23" stroke="#37b3ff" stroke-width="3.98" stroke-linecap="round" opacity="0.95"/><line x1="158.26" y1="591.23" x2="183.14" y2="616.11" stroke="#37b3ff" stroke-width="3.98" stroke-linecap="round" opacity="0.95"/><line x1="183.14" y1="616.11" x2="183.14" y2="621.09" stroke="#37b3ff" stroke-width="3.98" stroke-linecap="round" opacity="0.95"/><line x1="183.14" y1="621.09" x2="188.12" y2="626.07" stroke="#37b3ff" stroke-width="3.98" stroke-linecap="round" opacity="0.95"/><line x1="188.12" y1="626.07" x2="188.12" y2="631.04" stroke="#37b3ff" stroke-width="3.98" stroke-linecap="round" opacity="0.95"/><line x1="188.12" y1="631.04" x2="198.07" y2="641.00" stroke="#37b3ff" stroke-width="3.98" stroke-linecap="round" opacity="0.95"/><line x1="198.07" y1="641.00" x2="198.07" y2="645.97" stroke="#37b3ff" stroke-width="3.98" stroke-linecap="round" opacity="0.95"/><line x1="198.07" y1="645.97" x2="203.05" y2="650.95" stroke="#37b3ff" stroke-width="3.98" stroke-linecap="round" opacity="0.95"/><line x1="203.05" y1="650.95" x2="208.02" y2="645.97" stroke="#37b3ff" stroke-width="3.98" stroke-linecap="round" opacity="0.95"/><line x1="208.02" y1="645.97" x2="208.02" y2="641.00" stroke="#37b3ff" stroke-width="3.98" stroke-linecap="round" opacity="0.95"/><line x1="208.02" y1="641.00" x2="222.95" y2="641.00" stroke="#37b3ff" stroke-width="3.98" stroke-linecap="round" opacity="0.95"/><line x1="188.12" y1="456.86" x2="208.02" y2="456.86" stroke="#37b3ff" stroke-width="3.98" stroke-linecap="round" opacity="0.95"/><line x1="208.02" y1="456.86" x2="217.98" y2="466.81" stroke="#37b3ff" stroke-width="3.98" stroke-linecap="round" opacity="0.95"/><line x1="217.98" y1="466.81" x2="217.98" y2="471.79" stroke="#37b3ff" stroke-width="3.98" stroke-linecap="round" opacity="0.95"/><line x1="217.98" y1="471.79" x2="208.02" y2="481.74" stroke="#37b3ff" stroke-width="3.98" stroke-linecap="round" opacity="0.95"/><line x1="208.02" y1="481.74" x2="208.02" y2="511.60" stroke="#37b3ff" stroke-width="3.98" stroke-linecap="round" opacity="0.95"/><line x1="208.02" y1="511.60" x2="193.09" y2="526.53" stroke="#37b3ff" stroke-width="3.98" stroke-linecap="round" opacity="0.95"/><line x1="193.09" y1="526.53" x2="193.09" y2="536.49" stroke="#37b3ff" stroke-width="3.98" stroke-linecap="round" opacity="0.95"/><line x1="193.09" y1="536.49" x2="173.19" y2="556.39" stroke="#37b3ff" stroke-width="3.98" stroke-linecap="round" opacity="0.95"/><line x1="173.19" y1="556.39" x2="173.19" y2="591.23" stroke="#37b3ff" stroke-width="3.98" stroke-linecap="round" opacity="0.95"/><line x1="173.19" y1="591.23" x2="158.26" y2="606.16" stroke="#37b3ff" stroke-width="3.98" stroke-linecap="round" opacity="0.95"/><line x1="158.26" y1="606.16" x2="158.26" y2="641.00" stroke="#37b3ff" stroke-width="3.98" stroke-linecap="round" opacity="0.95"/><line x1="158.26" y1="641.00" x2="168.21" y2="650.95" stroke="#37b3ff" stroke-width="3.98" stroke-linecap="round" opacity="0.95"/><line x1="168.21" y1="650.95" x2="168.21" y2="660.90" stroke="#37b3ff" stroke-width="3.98" stroke-linecap="round" opacity="0.95"/><line x1="168.21" y1="660.90" x2="208.02" y2="700.72" stroke="#37b3ff" stroke-width="3.98" stroke-linecap="round" opacity="0.95"/><line x1="208.02" y1="700.72" x2="222.95" y2="700.72" stroke="#37b3ff" stroke-width="3.98" stroke-linecap="round" opacity="0.95"/><circle cx="436.95" cy="715.65" r="4.88" fill="#ffd23f"/><circle cx="431.98" cy="695.74" r="4.88" fill="#ffd23f"/><rect x="173.36" y="69.87" width="30.36" height="19.91" rx="1" fill="#555" opacity="0.95"/><rect x="44.69" y="95.15" width="30.36" height="19.91" rx="1" fill="#555" opacity="0.95"/><rect x="110.48" y="110.48" width="39.81" height="39.81" rx="1" fill="#555" opacity="0.95"/><rect x="172.49" y="121.93" width="16.92" height="16.92" rx="1" fill="#555" opacity="0.95"/><rect x="71.37" y="121.93" width="16.92" height="16.92" rx="1" fill="#555" opacity="0.95"/><rect x="60.72" y="60.72" width="139.35" height="139.35" fill="none" stroke="#ffffff22" stroke-width="0.5"/><rect x="362.97" y="69.87" width="30.36" height="19.91" rx="1" fill="#555" opacity="0.95"/><rect x="234.30" y="95.15" width="30.36" height="19.91" rx="1" fill="#555" opacity="0.95"/><rect x="300.09" y="110.48" width="39.81" height="39.81" rx="1" fill="#555" opacity="0.95"/><rect x="362.10" y="121.93" width="16.92" height="16.92" rx="1" fill="#555" opacity="0.95"/><rect x="260.98" y="121.93" width="16.92" height="16.92" rx="1" fill="#555" opacity="0.95"/><rect x="250.33" y="60.72" width="139.35" height="139.35" fill="none" stroke="#ffffff22" stroke-width="0.5"/><rect x="475.62" y="195.28" width="17.42" height="21.90" rx="1" fill="#555" opacity="0.95"/><rect x="500.90" y="195.28" width="17.42" height="21.90" rx="1" fill="#555" opacity="0.95"/><rect x="526.18" y="195.28" width="17.42" height="21.90" rx="1" fill="#555" opacity="0.95"/><rect x="475.62" y="43.60" width="17.42" height="21.90" rx="1" fill="#555" opacity="0.95"/><rect x="526.18" y="43.60" width="17.42" height="21.90" rx="1" fill="#555" opacity="0.95"/><rect x="438.69" y="149.30" width="30.36" height="21.90" rx="1" fill="#555" opacity="0.95"/><rect x="550.17" y="149.30" width="30.36" height="21.90" rx="1" fill="#555" opacity="0.95"/><rect x="437.45" y="48.27" width="144.32" height="164.23" fill="none" stroke="#ffffff22" stroke-width="0.5"/><rect x="173.36" y="259.48" width="30.36" height="19.91" rx="1" fill="#555" opacity="0.95"/><rect x="44.69" y="284.77" width="30.36" height="19.91" rx="1" fill="#555" opacity="0.95"/><rect x="110.48" y="300.09" width="39.81" height="39.81" rx="1" fill="#555" opacity="0.95"/><rect x="172.49" y="311.54" width="16.92" height="16.92" rx="1" fill="#555" opacity="0.95"/><rect x="71.37" y="311.54" width="16.92" height="16.92" rx="1" fill="#555" opacity="0.95"/><rect x="60.72" y="250.33" width="139.35" height="139.35" fill="none" stroke="#ffffff22" stroke-width="0.5"/><rect x="362.97" y="259.48" width="30.36" height="19.91" rx="1" fill="#555" opacity="0.95"/><rect x="234.30" y="284.77" width="30.36" height="19.91" rx="1" fill="#555" opacity="0.95"/><rect x="300.09" y="300.09" width="39.81" height="39.81" rx="1" fill="#555" opacity="0.95"/><rect x="362.10" y="311.54" width="16.92" height="16.92" rx="1" fill="#555" opacity="0.95"/><rect x="260.98" y="311.54" width="16.92" height="16.92" rx="1" fill="#555" opacity="0.95"/><rect x="250.33" y="250.33" width="139.35" height="139.35" fill="none" stroke="#ffffff22" stroke-width="0.5"/><rect x="552.58" y="259.48" width="30.36" height="19.91" rx="1" fill="#555" opacity="0.95"/><rect x="423.91" y="284.77" width="30.36" height="19.91" rx="1" fill="#555" opacity="0.95"/><rect x="489.70" y="300.09" width="39.81" height="39.81" rx="1" fill="#555" opacity="0.95"/><rect x="551.71" y="311.54" width="16.92" height="16.92" rx="1" fill="#555" opacity="0.95"/><rect x="450.59" y="311.54" width="16.92" height="16.92" rx="1" fill="#555" opacity="0.95"/><rect x="439.94" y="250.33" width="139.35" height="139.35" fill="none" stroke="#ffffff22" stroke-width="0.5"/><rect x="173.36" y="449.09" width="30.36" height="19.91" rx="1" fill="#555" opacity="0.95"/><rect x="44.69" y="474.38" width="30.36" height="19.91" rx="1" fill="#555" opacity="0.95"/><rect x="110.48" y="489.70" width="39.81" height="39.81" rx="1" fill="#555" opacity="0.95"/><rect x="172.49" y="501.15" width="16.92" height="16.92" rx="1" fill="#555" opacity="0.95"/><rect x="71.37" y="501.15" width="16.92" height="16.92" rx="1" fill="#555" opacity="0.95"/><rect x="60.72" y="439.94" width="139.35" height="139.35" fill="none" stroke="#ffffff22" stroke-width="0.5"/><rect x="362.97" y="449.09" width="30.36" height="19.91" rx="1" fill="#555" opacity="0.95"/><rect x="234.30" y="474.38" width="30.36" height="19.91" rx="1" fill="#555" opacity="0.95"/><rect x="300.09" y="489.70" width="39.81" height="39.81" rx="1" fill="#555" opacity="0.95"/><rect x="362.10" y="501.15" width="16.92" height="16.92" rx="1" fill="#555" opacity="0.95"/><rect x="260.98" y="501.15" width="16.92" height="16.92" rx="1" fill="#555" opacity="0.95"/><rect x="250.33" y="439.94" width="139.35" height="139.35" fill="none" stroke="#ffffff22" stroke-width="0.5"/><rect x="552.58" y="449.09" width="30.36" height="19.91" rx="1" fill="#555" opacity="0.95"/><rect x="423.91" y="474.38" width="30.36" height="19.91" rx="1" fill="#555" opacity="0.95"/><rect x="489.70" y="489.70" width="39.81" height="39.81" rx="1" fill="#555" opacity="0.95"/><rect x="551.71" y="501.15" width="16.92" height="16.92" rx="1" fill="#555" opacity="0.95"/><rect x="450.59" y="501.15" width="16.92" height="16.92" rx="1" fill="#555" opacity="0.95"/><rect x="439.94" y="439.94" width="139.35" height="139.35" fill="none" stroke="#ffffff22" stroke-width="0.5"/><rect x="408.58" y="634.53" width="19.91" height="15.93" rx="1" fill="#555" opacity="0.95"/><rect x="408.58" y="654.43" width="19.91" height="15.93" rx="1" fill="#555" opacity="0.95"/><rect x="408.58" y="674.34" width="19.91" height="15.93" rx="1" fill="#555" opacity="0.95"/><rect x="408.58" y="694.25" width="19.91" height="15.93" rx="1" fill="#555" opacity="0.95"/><rect x="408.58" y="714.15" width="19.91" height="15.93" rx="1" fill="#555" opacity="0.95"/><rect x="408.58" y="734.06" width="19.91" height="15.93" rx="1" fill="#555" opacity="0.95"/><rect x="408.58" y="753.97" width="19.91" height="15.93" rx="1" fill="#555" opacity="0.95"/><rect x="211.51" y="634.53" width="19.91" height="15.93" rx="1" fill="#555" opacity="0.95"/><rect x="211.51" y="654.43" width="19.91" height="15.93" rx="1" fill="#555" opacity="0.95"/><rect x="211.51" y="674.34" width="19.91" height="15.93" rx="1" fill="#555" opacity="0.95"/><rect x="211.51" y="694.25" width="19.91" height="15.93" rx="1" fill="#555" opacity="0.95"/><rect x="211.51" y="714.15" width="19.91" height="15.93" rx="1" fill="#555" opacity="0.95"/><rect x="211.51" y="734.06" width="19.91" height="15.93" rx="1" fill="#555" opacity="0.95"/><rect x="211.51" y="753.97" width="19.91" height="15.93" rx="1" fill="#555" opacity="0.95"/><rect x="215.49" y="615.12" width="209.02" height="174.18" fill="none" stroke="#ffffff22" stroke-width="0.5"/><rect x="32.85" y="32.85" width="43.79" height="43.79" rx="1" fill="#555" opacity="0.95"/><rect x="32.85" y="32.85" width="43.79" height="43.79" fill="none" stroke="#ffffff22" stroke-width="0.5"/><rect x="563.36" y="32.85" width="43.79" height="43.79" rx="1" fill="#555" opacity="0.95"/><rect x="563.36" y="32.85" width="43.79" height="43.79" fill="none" stroke="#ffffff22" stroke-width="0.5"/><rect x="32.85" y="779.84" width="43.79" height="43.79" rx="1" fill="#555" opacity="0.95"/><rect x="32.85" y="779.84" width="43.79" height="43.79" fill="none" stroke="#ffffff22" stroke-width="0.5"/><rect x="563.36" y="779.84" width="43.79" height="43.79" rx="1" fill="#555" opacity="0.95"/><rect x="563.36" y="779.84" width="43.79" height="43.79" fill="none" stroke="#ffffff22" stroke-width="0.5"/><circle cx="54.74" cy="54.74" r="10.95" fill="#111" stroke="#fff" stroke-width="0.6"/><circle cx="585.26" cy="54.74" r="10.95" fill="#111" stroke="#fff" stroke-width="0.6"/><circle cx="54.74" cy="801.74" r="10.95" fill="#111" stroke="#fff" stroke-width="0.6"/><circle cx="585.26" cy="801.74" r="10.95" fill="#111" stroke="#fff" stroke-width="0.6"/><text x="130.39" y="34.84" fill="#e8f5e9" font-size="7.2" font-family="monospace" text-anchor="middle" dominant-baseline="middle">1</text><text x="320.00" y="34.84" fill="#e8f5e9" font-size="7.2" font-family="monospace" text-anchor="middle" dominant-baseline="middle">2</text><text x="509.61" y="34.84" fill="#e8f5e9" font-size="7.2" font-family="monospace" text-anchor="middle" dominant-baseline="middle">VOL</text><text x="130.39" y="224.45" fill="#e8f5e9" font-size="7.2" font-family="monospace" text-anchor="middle" dominant-baseline="middle">4</text><text x="320.00" y="224.45" fill="#e8f5e9" font-size="7.2" font-family="monospace" text-anchor="middle" dominant-baseline="middle">5</text><text x="509.61" y="224.45" fill="#e8f5e9" font-size="7.2" font-family="monospace" text-anchor="middle" dominant-baseline="middle">6</text><text x="130.39" y="414.06" fill="#e8f5e9" font-size="7.2" font-family="monospace" text-anchor="middle" dominant-baseline="middle">7</text><text x="320.00" y="414.06" fill="#e8f5e9" font-size="7.2" font-family="monospace" text-anchor="middle" dominant-baseline="middle">8</text><text x="509.61" y="414.06" fill="#e8f5e9" font-size="7.2" font-family="monospace" text-anchor="middle" dominant-baseline="middle">9</text><text x="320.00" y="820.65" fill="#9fb59f" font-size="9.0" font-family="monospace" text-anchor="middle" dominant-baseline="middle">keeberia</text><text x="8" y="14" fill="#37b3ff" font-size="9">B.Cu</text><text x="8" y="26" fill="#c95b0e" font-size="9">F.Cu</text><text x="8" y="38" fill="#ffd23f" font-size="9">vias</text></svg>