G04 keeberia — B.SilkS*
%FSLAX35Y35*%
%MOMM*%
%LPD*%
G01*
%ADD10C,0.15*%
D10*
X-2707500Y3142500D02*
X-4047500Y3142500D01*
D10*
X-4047500Y3142500D02*
X-4047500Y1802500D01*
D10*
X-4047500Y1802500D02*
X-2707500Y1802500D01*
D10*
X-2707500Y1802500D02*
X-2707500Y3142500D01*
D10*
X-802500Y3142500D02*
X-2142500Y3142500D01*
D10*
X-2142500Y3142500D02*
X-2142500Y1802500D01*
D10*
X-2142500Y1802500D02*
X-802500Y1802500D01*
D10*
X-802500Y1802500D02*
X-802500Y3142500D01*
D10*
X-2707500Y1237500D02*
X-4047500Y1237500D01*
D10*
X-4047500Y1237500D02*
X-4047500Y-102500D01*
D10*
X-4047500Y-102500D02*
X-2707500Y-102500D01*
D10*
X-2707500Y-102500D02*
X-2707500Y1237500D01*
D10*
X-802500Y1237500D02*
X-2142500Y1237500D01*
D10*
X-2142500Y1237500D02*
X-2142500Y-102500D01*
D10*
X-2142500Y-102500D02*
X-802500Y-102500D01*
D10*
X-802500Y-102500D02*
X-802500Y1237500D01*
D10*
X1102500Y1237500D02*
X-237500Y1237500D01*
D10*
X-237500Y1237500D02*
X-237500Y-102500D01*
D10*
X-237500Y-102500D02*
X1102500Y-102500D01*
D10*
X1102500Y-102500D02*
X1102500Y1237500D01*
D10*
X3007500Y1237500D02*
X1667500Y1237500D01*
D10*
X1667500Y1237500D02*
X1667500Y-102500D01*
D10*
X1667500Y-102500D02*
X3007500Y-102500D01*
D10*
X3007500Y-102500D02*
X3007500Y1237500D01*
D10*
X-2707500Y-667500D02*
X-4047500Y-667500D01*
D10*
X-4047500Y-667500D02*
X-4047500Y-2007500D01*
D10*
X-4047500Y-2007500D02*
X-2707500Y-2007500D01*
D10*
X-2707500Y-2007500D02*
X-2707500Y-667500D01*
D10*
X-802500Y-667500D02*
X-2142500Y-667500D01*
D10*
X-2142500Y-667500D02*
X-2142500Y-2007500D01*
D10*
X-2142500Y-2007500D02*
X-802500Y-2007500D01*
D10*
X-802500Y-2007500D02*
X-802500Y-667500D01*
D10*
X1102500Y-667500D02*
X-237500Y-667500D01*
D10*
X-237500Y-667500D02*
X-237500Y-2007500D01*
D10*
X-237500Y-2007500D02*
X1102500Y-2007500D01*
D10*
X1102500Y-2007500D02*
X1102500Y-667500D01*
D10*
X3007500Y-667500D02*
X1667500Y-667500D01*
D10*
X1667500Y-667500D02*
X1667500Y-2007500D01*
D10*
X1667500Y-2007500D02*
X3007500Y-2007500D01*
D10*
X3007500Y-2007500D02*
X3007500Y-667500D01*
D10*
X-1540000Y-4117500D02*
X500000Y-4117500D01*
D10*
X500000Y-4117500D02*
X500000Y-2427500D01*
D10*
X500000Y-2427500D02*
X-1540000Y-2427500D01*
D10*
X-1540000Y-2427500D02*
X-1540000Y-4117500D01*
D10*
X-820000Y-4232500D02*
X-220000Y-4232500D01*
D10*
X-2842500Y1562500D02*
X-3072500Y1562500D01*
D10*
X-937500Y1562500D02*
X-1167500Y1562500D01*
D10*
X-2842500Y-342500D02*
X-3072500Y-342500D01*
D10*
X-937500Y-342500D02*
X-1167500Y-342500D01*
D10*
X967500Y-342500D02*
X737500Y-342500D01*
D10*
X2872500Y-342500D02*
X2642500Y-342500D01*
D10*
X-2842500Y-2247500D02*
X-3072500Y-2247500D01*
D10*
X-937500Y-2247500D02*
X-1167500Y-2247500D01*
D10*
X967500Y-2247500D02*
X737500Y-2247500D01*
D10*
X2872500Y-2247500D02*
X2642500Y-2247500D01*
D10*
X750000Y-4462500D02*
X750000Y-4562500D01*
D10*
X683333Y-4562500D02*
X750000Y-4512500D01*
D10*
X750000Y-4512500D02*
X683333Y-4462500D01*
D10*
X600000Y-4562500D02*
X666667Y-4562500D01*
D10*
X666667Y-4562500D02*
X666667Y-4462500D01*
D10*
X666667Y-4462500D02*
X600000Y-4462500D01*
D10*
X666667Y-4512500D02*
X616667Y-4512500D01*
D10*
X516667Y-4562500D02*
X583333Y-4562500D01*
D10*
X583333Y-4562500D02*
X583333Y-4462500D01*
D10*
X583333Y-4462500D02*
X516667Y-4462500D01*
D10*
X583333Y-4512500D02*
X533333Y-4512500D01*
D10*
X500000Y-4462500D02*
X500000Y-4562500D01*
D10*
X500000Y-4562500D02*
X450000Y-4562500D01*
D10*
X450000Y-4562500D02*
X433333Y-4545833D01*
D10*
X433333Y-4545833D02*
X433333Y-4529167D01*
D10*
X433333Y-4529167D02*
X450000Y-4512500D01*
D10*
X450000Y-4512500D02*
X500000Y-4512500D01*
D10*
X450000Y-4512500D02*
X433333Y-4495833D01*
D10*
X433333Y-4495833D02*
X433333Y-4479167D01*
D10*
X433333Y-4479167D02*
X450000Y-4462500D01*
D10*
X450000Y-4462500D02*
X500000Y-4462500D01*
D10*
X350000Y-4562500D02*
X416667Y-4562500D01*
D10*
X416667Y-4562500D02*
X416667Y-4462500D01*
D10*
X416667Y-4462500D02*
X350000Y-4462500D01*
D10*
X416667Y-4512500D02*
X366667Y-4512500D01*
D10*
X333333Y-4462500D02*
X333333Y-4562500D01*
D10*
X333333Y-4562500D02*
X283333Y-4562500D01*
D10*
X283333Y-4562500D02*
X266667Y-4545833D01*
D10*
X266667Y-4545833D02*
X266667Y-4529167D01*
D10*
X266667Y-4529167D02*
X283333Y-4512500D01*
D10*
X283333Y-4512500D02*
X333333Y-4512500D01*
D10*
X316667Y-4512500D02*
X266667Y-4462500D01*
D10*
X233333Y-4462500D02*
X233333Y-4562500D01*
D10*
X250000Y-4562500D02*
X216667Y-4562500D01*
D10*
X250000Y-4462500D02*
X216667Y-4462500D01*
D10*
X166667Y-4462500D02*
X133333Y-4562500D01*
D10*
X133333Y-4562500D02*
X100000Y-4462500D01*
D10*
X166667Y-4495833D02*
X100000Y-4495833D01*
D10*
X83333Y-4512500D02*
X16667Y-4512500D01*
D10*
X-66667Y-4545833D02*
X-50000Y-4562500D01*
D10*
X-50000Y-4562500D02*
X-16667Y-4562500D01*
D10*
X-16667Y-4562500D02*
X0Y-4545833D01*
D10*
X0Y-4545833D02*
X0Y-4529167D01*
D10*
X0Y-4529167D02*
X-16667Y-4512500D01*
D10*
X-16667Y-4512500D02*
X-50000Y-4512500D01*
D10*
X-50000Y-4512500D02*
X-66667Y-4495833D01*
D10*
X-66667Y-4495833D02*
X-66667Y-4479167D01*
D10*
X-66667Y-4479167D02*
X-50000Y-4462500D01*
D10*
X-50000Y-4462500D02*
X-16667Y-4462500D01*
D10*
X-16667Y-4462500D02*
X0Y-4479167D01*
D10*
X-83333Y-4562500D02*
X-150000Y-4562500D01*
D10*
X-116667Y-4562500D02*
X-116667Y-4462500D01*
D10*
X-166667Y-4462500D02*
X-166667Y-4562500D01*
D10*
X-166667Y-4562500D02*
X-216667Y-4562500D01*
D10*
X-216667Y-4562500D02*
X-233333Y-4545833D01*
D10*
X-233333Y-4545833D02*
X-233333Y-4529167D01*
D10*
X-233333Y-4529167D02*
X-216667Y-4512500D01*
D10*
X-216667Y-4512500D02*
X-166667Y-4512500D01*
D10*
X-183333Y-4512500D02*
X-233333Y-4462500D01*
D10*
X-316667Y-4562500D02*
X-250000Y-4562500D01*
D10*
X-250000Y-4562500D02*
X-250000Y-4462500D01*
D10*
X-250000Y-4462500D02*
X-316667Y-4462500D01*
D10*
X-250000Y-4512500D02*
X-300000Y-4512500D01*
D10*
X-333333Y-4462500D02*
X-366667Y-4562500D01*
D10*
X-366667Y-4562500D02*
X-400000Y-4462500D01*
D10*
X-333333Y-4495833D02*
X-400000Y-4495833D01*
D10*
X-416667Y-4462500D02*
X-416667Y-4562500D01*
D10*
X-416667Y-4562500D02*
X-450000Y-4512500D01*
D10*
X-450000Y-4512500D02*
X-483333Y-4562500D01*
D10*
X-483333Y-4562500D02*
X-483333Y-4462500D01*
D10*
X-500000Y-4462500D02*
X-500000Y-4562500D01*
D10*
X-500000Y-4562500D02*
X-533333Y-4562500D01*
D10*
X-533333Y-4562500D02*
X-566667Y-4529167D01*
D10*
X-566667Y-4529167D02*
X-566667Y-4495833D01*
D10*
X-566667Y-4495833D02*
X-533333Y-4462500D01*
D10*
X-533333Y-4462500D02*
X-500000Y-4462500D01*
D10*
X-650000Y-4562500D02*
X-583333Y-4562500D01*
D10*
X-583333Y-4562500D02*
X-583333Y-4462500D01*
D10*
X-583333Y-4462500D02*
X-650000Y-4462500D01*
D10*
X-583333Y-4512500D02*
X-633333Y-4512500D01*
D10*
X-733333Y-4545833D02*
X-716667Y-4562500D01*
D10*
X-716667Y-4562500D02*
X-683333Y-4562500D01*
D10*
X-683333Y-4562500D02*
X-666667Y-4545833D01*
D10*
X-666667Y-4545833D02*
X-666667Y-4479167D01*
D10*
X-666667Y-4479167D02*
X-683333Y-4462500D01*
D10*
X-683333Y-4462500D02*
X-716667Y-4462500D01*
D10*
X-716667Y-4462500D02*
X-733333Y-4479167D01*
D10*
X-750000Y-4462500D02*
X-750000Y-4562500D01*
D10*
X-816667Y-4562500D02*
X-750000Y-4512500D01*
D10*
X-750000Y-4512500D02*
X-816667Y-4462500D01*
M02*
