G04 keeberia — B.Mask*
%FSLAX35Y35*%
%MOMM*%
%LPD*%
G01*
%ADD10O,3.25X2.2*%
D10*
X-1320800Y3500500D03*
D10*
X-2613500Y3246500D03*
%ADD11C,4.2*%
D11*
X-1905000Y2992500D03*
%ADD12C,1.9*%
D12*
X-1397000Y2992500D03*
D12*
X-2413000Y2992500D03*
D10*
X584200Y3500500D03*
D10*
X-708500Y3246500D03*
D11*
X0Y2992500D03*
D12*
X508000Y2992500D03*
D12*
X-508000Y2992500D03*
%ADD13O,1.95X2.4*%
D13*
X1651000Y2230500D03*
D13*
X1905000Y2230500D03*
D13*
X2159000Y2230500D03*
D13*
X1651000Y3754500D03*
D13*
X2159000Y3754500D03*
%ADD14O,3.25X2.4*%
D14*
X1345000Y2692500D03*
D14*
X2465000Y2692500D03*
D10*
X-1320800Y1595500D03*
D10*
X-2613500Y1341500D03*
D11*
X-1905000Y1087500D03*
D12*
X-1397000Y1087500D03*
D12*
X-2413000Y1087500D03*
D10*
X584200Y1595500D03*
D10*
X-708500Y1341500D03*
D11*
X0Y1087500D03*
D12*
X508000Y1087500D03*
D12*
X-508000Y1087500D03*
D10*
X2489200Y1595500D03*
D10*
X1196500Y1341500D03*
D11*
X1905000Y1087500D03*
D12*
X2413000Y1087500D03*
D12*
X1397000Y1087500D03*
D10*
X-1320800Y-309500D03*
D10*
X-2613500Y-563500D03*
D11*
X-1905000Y-817500D03*
D12*
X-1397000Y-817500D03*
D12*
X-2413000Y-817500D03*
D10*
X584200Y-309500D03*
D10*
X-708500Y-563500D03*
D11*
X0Y-817500D03*
D12*
X508000Y-817500D03*
D12*
X-508000Y-817500D03*
D10*
X2489200Y-309500D03*
D10*
X1196500Y-563500D03*
D11*
X1905000Y-817500D03*
D12*
X2413000Y-817500D03*
D12*
X1397000Y-817500D03*
%ADD15O,2.2X1.8*%
D15*
X-990000Y-3352500D03*
D15*
X-990000Y-3152500D03*
D15*
X-990000Y-2952500D03*
D15*
X-990000Y-2752500D03*
D15*
X-990000Y-2552500D03*
D15*
X-990000Y-2352500D03*
D15*
X-990000Y-2152500D03*
D15*
X990000Y-3352500D03*
D15*
X990000Y-3152500D03*
D15*
X990000Y-2952500D03*
D15*
X990000Y-2752500D03*
D15*
X990000Y-2552500D03*
D15*
X990000Y-2352500D03*
D15*
X990000Y-2152500D03*
%ADD16C,4.6*%
D16*
X-2665000Y3752500D03*
D16*
X2665000Y3752500D03*
D16*
X-2665000Y-3752500D03*
D16*
X2665000Y-3752500D03*
%ADD17C,0.9*%
D17*
X-1125000Y-2487500D03*
D17*
X1675000Y2062500D03*
D17*
X775000Y-287500D03*
D17*
X1125000Y-2537500D03*
M02*
