G04 keeberia — B.SilkS*
%FSLAX35Y35*%
%MOMM*%
%LPD*%
G01*
%ADD10C,0.15*%
D10*
X-1020000Y-1642500D02*
X1020000Y-1642500D01*
D10*
X1020000Y-1642500D02*
X1020000Y47500D01*
D10*
X1020000Y47500D02*
X-1020000Y47500D01*
D10*
X-1020000Y47500D02*
X-1020000Y-1642500D01*
D10*
X-300000Y-1757500D02*
X300000Y-1757500D01*
D10*
X625000Y-1987500D02*
X625000Y-2087500D01*
D10*
X558333Y-2087500D02*
X625000Y-2037500D01*
D10*
X625000Y-2037500D02*
X558333Y-1987500D01*
D10*
X475000Y-2087500D02*
X541667Y-2087500D01*
D10*
X541667Y-2087500D02*
X541667Y-1987500D01*
D10*
X541667Y-1987500D02*
X475000Y-1987500D01*
D10*
X541667Y-2037500D02*
X491667Y-2037500D01*
D10*
X391667Y-2087500D02*
X458333Y-2087500D01*
D10*
X458333Y-2087500D02*
X458333Y-1987500D01*
D10*
X458333Y-1987500D02*
X391667Y-1987500D01*
D10*
X458333Y-2037500D02*
X408333Y-2037500D01*
D10*
X375000Y-1987500D02*
X375000Y-2087500D01*
D10*
X375000Y-2087500D02*
X325000Y-2087500D01*
D10*
X325000Y-2087500D02*
X308333Y-2070833D01*
D10*
X308333Y-2070833D02*
X308333Y-2054167D01*
D10*
X308333Y-2054167D02*
X325000Y-2037500D01*
D10*
X325000Y-2037500D02*
X375000Y-2037500D01*
D10*
X325000Y-2037500D02*
X308333Y-2020833D01*
D10*
X308333Y-2020833D02*
X308333Y-2004167D01*
D10*
X308333Y-2004167D02*
X325000Y-1987500D01*
D10*
X325000Y-1987500D02*
X375000Y-1987500D01*
D10*
X225000Y-2087500D02*
X291667Y-2087500D01*
D10*
X291667Y-2087500D02*
X291667Y-1987500D01*
D10*
X291667Y-1987500D02*
X225000Y-1987500D01*
D10*
X291667Y-2037500D02*
X241667Y-2037500D01*
D10*
X208333Y-1987500D02*
X208333Y-2087500D01*
D10*
X208333Y-2087500D02*
X158333Y-2087500D01*
D10*
X158333Y-2087500D02*
X141667Y-2070833D01*
D10*
X141667Y-2070833D02*
X141667Y-2054167D01*
D10*
X141667Y-2054167D02*
X158333Y-2037500D01*
D10*
X158333Y-2037500D02*
X208333Y-2037500D01*
D10*
X191667Y-2037500D02*
X141667Y-1987500D01*
D10*
X108333Y-1987500D02*
X108333Y-2087500D01*
D10*
X125000Y-2087500D02*
X91667Y-2087500D01*
D10*
X125000Y-1987500D02*
X91667Y-1987500D01*
D10*
X41667Y-1987500D02*
X8333Y-2087500D01*
D10*
X8333Y-2087500D02*
X-25000Y-1987500D01*
D10*
X41667Y-2020833D02*
X-25000Y-2020833D01*
D10*
X-41667Y-2037500D02*
X-108333Y-2037500D01*
D10*
X-125000Y-1987500D02*
X-125000Y-2087500D01*
D10*
X-191667Y-1987500D02*
X-191667Y-2087500D01*
D10*
X-125000Y-2037500D02*
X-191667Y-2037500D01*
D10*
X-208333Y-1987500D02*
X-241667Y-2087500D01*
D10*
X-241667Y-2087500D02*
X-275000Y-1987500D01*
D10*
X-208333Y-2020833D02*
X-275000Y-2020833D01*
D10*
X-358333Y-2070833D02*
X-341667Y-2087500D01*
D10*
X-341667Y-2087500D02*
X-308333Y-2087500D01*
D10*
X-308333Y-2087500D02*
X-291667Y-2070833D01*
D10*
X-291667Y-2070833D02*
X-291667Y-2004167D01*
D10*
X-291667Y-2004167D02*
X-308333Y-1987500D01*
D10*
X-308333Y-1987500D02*
X-341667Y-1987500D01*
D10*
X-341667Y-1987500D02*
X-358333Y-2004167D01*
D10*
X-375000Y-1987500D02*
X-375000Y-2087500D01*
D10*
X-441667Y-2087500D02*
X-375000Y-2037500D01*
D10*
X-375000Y-2037500D02*
X-441667Y-1987500D01*
D10*
X-458333Y-1987500D02*
X-458333Y-2087500D01*
D10*
X-458333Y-2087500D02*
X-508333Y-2087500D01*
D10*
X-508333Y-2087500D02*
X-525000Y-2070833D01*
D10*
X-525000Y-2070833D02*
X-525000Y-2054167D01*
D10*
X-525000Y-2054167D02*
X-508333Y-2037500D01*
D10*
X-508333Y-2037500D02*
X-458333Y-2037500D01*
D10*
X-541667Y-1987500D02*
X-575000Y-2087500D01*
D10*
X-575000Y-2087500D02*
X-608333Y-1987500D01*
D10*
X-541667Y-2020833D02*
X-608333Y-2020833D01*
D10*
X-625000Y-1987500D02*
X-625000Y-2087500D01*
D10*
X-625000Y-2087500D02*
X-658333Y-2087500D01*
D10*
X-658333Y-2087500D02*
X-691667Y-2054167D01*
D10*
X-691667Y-2054167D02*
X-691667Y-2020833D01*
D10*
X-691667Y-2020833D02*
X-658333Y-1987500D01*
D10*
X-658333Y-1987500D02*
X-625000Y-1987500D01*
M02*
