G04 keeberia — Edge.Cuts*
%FSLAX35Y35*%
%MOMM*%
%LPD*%
G01*
%ADD10C,0.1*%
D10*
X2915000Y-1897500D02*
X2910196Y-1946273D01*
D10*
X2910196Y-1946273D02*
X2895970Y-1993171D01*
D10*
X2895970Y-1993171D02*
X2872867Y-2036393D01*
D10*
X2872867Y-2036393D02*
X2841777Y-2074277D01*
D10*
X2841777Y-2074277D02*
X2803893Y-2105367D01*
D10*
X2803893Y-2105367D02*
X2760671Y-2128470D01*
D10*
X2760671Y-2128470D02*
X2713773Y-2142696D01*
D10*
X2713773Y-2142696D02*
X2665000Y-2147500D01*
D10*
X2665000Y-2147500D02*
X-2665000Y-2147500D01*
D10*
X-2665000Y-2147500D02*
X-2713773Y-2142696D01*
D10*
X-2713773Y-2142696D02*
X-2760671Y-2128470D01*
D10*
X-2760671Y-2128470D02*
X-2803893Y-2105367D01*
D10*
X-2803893Y-2105367D02*
X-2841777Y-2074277D01*
D10*
X-2841777Y-2074277D02*
X-2872867Y-2036393D01*
D10*
X-2872867Y-2036393D02*
X-2895970Y-1993171D01*
D10*
X-2895970Y-1993171D02*
X-2910196Y-1946273D01*
D10*
X-2910196Y-1946273D02*
X-2915000Y-1897500D01*
D10*
X-2915000Y-1897500D02*
X-2915000Y1897500D01*
D10*
X-2915000Y1897500D02*
X-2910196Y1946273D01*
D10*
X-2910196Y1946273D02*
X-2895970Y1993171D01*
D10*
X-2895970Y1993171D02*
X-2872867Y2036393D01*
D10*
X-2872867Y2036393D02*
X-2841777Y2074277D01*
D10*
X-2841777Y2074277D02*
X-2803893Y2105367D01*
D10*
X-2803893Y2105367D02*
X-2760671Y2128470D01*
D10*
X-2760671Y2128470D02*
X-2713773Y2142696D01*
D10*
X-2713773Y2142696D02*
X-2665000Y2147500D01*
D10*
X-2665000Y2147500D02*
X2665000Y2147500D01*
D10*
X2665000Y2147500D02*
X2713773Y2142696D01*
D10*
X2713773Y2142696D02*
X2760671Y2128470D01*
D10*
X2760671Y2128470D02*
X2803893Y2105367D01*
D10*
X2803893Y2105367D02*
X2841777Y2074277D01*
D10*
X2841777Y2074277D02*
X2872867Y2036393D01*
D10*
X2872867Y2036393D02*
X2895970Y1993171D01*
D10*
X2895970Y1993171D02*
X2910196Y1946273D01*
D10*
X2910196Y1946273D02*
X2915000Y1897500D01*
D10*
X2915000Y1897500D02*
X2915000Y-1897500D01*
M02*
